<?xml version="1.0" standalone="no"?>
<!DOCTYPE svg PUBLIC "-//W3C//DTD SVG 20010904//EN"
 "http://www.w3.org/TR/2001/REC-SVG-20010904/DTD/svg10.dtd">
<svg version="1.0" xmlns="http://www.w3.org/2000/svg"
 width="3000.000000pt" height="2000.000000pt" viewBox="0 0 3000.000000 2000.000000"
 preserveAspectRatio="xMidYMid meet">

<g transform="translate(0.000000,2000.000000) scale(0.100000,-0.100000)"
fill="#000000" stroke="none">
<path d="M14685 19468 c-26 -15 -35 -28 -35 -54 0 -27 30 -54 62 -54 53 0 79
74 36 104 -26 19 -36 19 -63 4z"/>
<path d="M15285 19468 c-26 -15 -35 -28 -35 -54 0 -27 30 -54 62 -54 53 0 79
74 36 104 -26 19 -36 19 -63 4z"/>
<path d="M23582 19464 c-33 -23 -31 -80 3 -96 36 -16 77 0 90 36 8 25 6 31
-18 52 -33 28 -45 29 -75 8z"/>
<path d="M15045 19458 c-61 -21 -90 -64 -101 -146 l-7 -52 -38 0 c-38 0 -39
-1 -39 -35 0 -34 1 -35 40 -35 l40 0 0 -215 0 -215 50 0 50 0 0 215 0 215 70
0 70 0 0 35 0 35 -76 0 -77 0 6 45 c6 61 29 85 81 85 23 0 48 -4 56 -10 11 -7
17 -1 27 22 16 37 12 45 -35 58 -45 12 -78 12 -117 -2z"/>
<path d="M9210 19110 l0 -350 45 0 c45 0 45 0 45 35 l0 35 43 -30 c97 -68 244
-54 324 32 91 96 81 289 -18 372 -95 80 -241 81 -326 3 l-23 -20 0 136 0 137
-45 0 -45 0 0 -350z m356 49 c63 -38 92 -147 60 -222 -33 -77 -118 -118 -199
-96 -104 28 -155 156 -102 259 43 83 158 111 241 59z"/>
<path d="M17281 19444 c-21 -15 -51 -70 -51 -94 0 -23 46 -9 62 20 21 38 42
37 92 0 63 -48 126 -37 152 25 19 47 18 55 -10 55 -16 0 -27 -7 -31 -20 -3
-11 -16 -25 -27 -31 -17 -9 -28 -6 -63 20 -55 40 -93 47 -124 25z"/>
<path d="M24380 19110 l0 -350 45 0 45 0 0 156 c0 175 10 212 64 245 40 25
141 26 175 3 42 -30 51 -71 51 -244 l0 -160 45 0 45 0 0 178 c0 198 -9 234
-68 284 -66 55 -197 56 -277 3 l-35 -24 0 129 0 130 -45 0 -45 0 0 -350z"/>
<path d="M1250 19413 c0 -5 64 -153 142 -330 l141 -323 47 0 47 0 141 323 c78
178 142 326 142 330 0 4 -20 7 -44 7 l-44 0 -120 -271 -120 -271 -19 43 c-11
24 -64 146 -119 272 l-99 227 -47 0 c-27 0 -48 -3 -48 -7z"/>
<path d="M22320 19091 l0 -331 45 0 45 0 0 100 0 100 105 0 104 0 71 -100 71
-100 50 0 c38 0 48 3 42 13 -4 7 -38 56 -75 109 -38 53 -68 98 -68 101 0 2 13
10 29 17 120 49 150 241 53 343 -61 64 -89 72 -289 75 l-183 4 0 -331z m334
238 c106 -29 139 -165 58 -241 -37 -36 -90 -48 -204 -48 l-98 0 0 150 0 150
103 0 c56 0 120 -5 141 -11z"/>
<path d="M3230 19315 l0 -55 -45 0 c-45 0 -45 0 -45 -34 0 -34 1 -35 43 -38
l42 -3 5 -170 c6 -189 12 -210 72 -241 38 -19 116 -21 159 -4 26 11 29 17 24
39 -9 37 -20 45 -43 32 -31 -17 -67 -13 -96 10 l-26 20 0 160 0 159 70 0 70 0
0 35 0 35 -70 0 -70 0 0 55 0 55 -45 0 -45 0 0 -55z"/>
<path d="M9870 19315 l0 -55 -40 0 c-39 0 -40 -1 -40 -35 0 -34 1 -35 40 -35
l40 0 0 -155 c0 -179 11 -222 66 -256 43 -26 142 -29 179 -5 21 14 23 19 13
47 -8 22 -15 28 -27 24 -43 -18 -87 -17 -111 3 -24 20 -25 24 -28 181 l-3 161
75 0 76 0 0 35 0 35 -75 0 -75 0 0 55 0 55 -45 0 -45 0 0 -55z"/>
<path d="M14290 19315 l0 -55 -45 0 c-45 0 -45 0 -45 -35 0 -35 0 -35 45 -35
l45 0 0 -160 c0 -176 9 -216 54 -245 39 -26 95 -35 146 -24 64 14 73 24 55 60
-13 25 -18 27 -41 19 -42 -16 -73 -11 -99 15 -24 24 -25 28 -25 180 l0 155 70
0 70 0 0 35 0 35 -70 0 -70 0 0 55 0 55 -45 0 -45 0 0 -55z"/>
<path d="M2111 19260 c-47 -10 -131 -48 -131 -59 0 -5 18 -35 36 -59 1 -2 22
7 46 19 52 27 150 32 192 9 31 -16 56 -57 56 -93 0 -24 -1 -25 -117 -29 -128
-5 -165 -16 -202 -64 -26 -33 -28 -113 -4 -154 51 -87 227 -100 316 -22 16 14
17 13 17 -16 0 -31 2 -32 41 -32 l41 0 -4 193 c-3 180 -4 194 -26 229 -40 65
-156 100 -261 78z m199 -315 c0 -70 -56 -117 -141 -118 -83 -1 -128 43 -107
104 13 38 42 48 151 48 l97 1 0 -35z"/>
<path d="M2769 19256 c-25 -6 -60 -22 -77 -35 l-32 -22 0 30 c0 30 -1 31 -45
31 l-45 0 0 -250 0 -250 45 0 45 0 0 150 c0 168 8 199 59 243 28 23 42 27 97
27 56 0 67 -3 96 -29 l33 -29 3 -181 3 -181 45 0 44 0 0 180 c0 129 -4 190
-14 213 -20 49 -77 93 -136 106 -61 13 -62 13 -121 -3z"/>
<path d="M3719 19260 c-51 -9 -129 -45 -129 -60 0 -5 5 -21 12 -35 8 -18 16
-24 27 -19 73 33 133 46 177 39 62 -9 104 -49 104 -99 l0 -36 -97 0 c-179 -1
-249 -48 -241 -158 8 -89 72 -136 188 -134 63 0 105 14 138 44 l22 21 0 -31
c0 -31 2 -32 40 -32 l40 0 0 183 c0 170 -2 186 -22 227 -38 75 -141 111 -259
90z m191 -318 c0 -69 -55 -114 -142 -115 -64 -1 -102 26 -106 75 -2 29 2 40
24 57 23 18 40 21 125 21 l99 0 0 -38z"/>
<path d="M4320 19259 c-24 -5 -64 -21 -88 -36 -128 -80 -141 -286 -24 -383 82
-68 213 -77 303 -21 l49 30 0 -42 c0 -51 -25 -103 -63 -131 -43 -32 -173 -30
-242 4 -27 13 -54 24 -58 24 -4 1 -17 -14 -28 -32 l-21 -32 68 -32 c63 -30 77
-33 169 -33 85 0 107 4 147 23 104 51 118 102 118 419 l0 243 -45 0 c-44 0
-45 -1 -45 -31 0 -31 0 -31 -22 -15 -61 44 -141 61 -218 45z m164 -97 c48 -28
76 -77 76 -134 0 -60 -19 -98 -67 -135 -31 -24 -45 -28 -104 -28 -75 0 -106
16 -146 75 -40 58 -28 155 25 203 53 48 152 56 216 19z"/>
<path d="M4980 19261 c-96 -20 -168 -88 -190 -182 -24 -100 5 -198 80 -261 79
-68 211 -81 309 -31 62 32 70 47 41 81 l-20 24 -27 -20 c-105 -75 -265 -29
-298 86 l-6 22 205 0 206 0 0 33 c0 53 -27 129 -60 169 -51 62 -155 96 -240
79z m138 -98 c31 -23 72 -80 72 -99 0 -11 -32 -14 -161 -14 -143 0 -160 2
-155 16 3 9 6 19 6 24 0 17 55 73 85 86 40 19 119 12 153 -13z"/>
<path d="M5605 19259 c-22 -5 -57 -23 -77 -40 l-38 -30 0 36 c0 35 0 35 -45
35 l-45 0 0 -250 0 -250 44 0 44 0 4 158 c4 175 14 207 71 242 39 24 125 27
166 5 49 -25 61 -75 61 -250 l0 -155 45 0 45 0 0 163 c0 168 -9 223 -42 270
-40 56 -148 87 -233 66z"/>
<path d="M6160 19263 c-57 -10 -88 -25 -121 -59 -30 -31 -34 -41 -34 -89 0
-85 36 -113 186 -144 108 -22 139 -44 123 -88 -19 -56 -141 -67 -242 -23 -24
11 -46 20 -48 20 -2 0 -11 -14 -19 -31 -21 -40 -9 -54 62 -75 66 -19 173 -21
230 -4 88 27 136 117 99 188 -23 45 -50 59 -154 82 -50 11 -102 25 -116 31
-50 23 -45 78 8 103 54 26 118 20 207 -18 11 -5 20 3 32 29 9 20 17 37 17 40
0 2 -21 10 -47 19 -53 17 -145 27 -183 19z"/>
<path d="M6918 19256 c-90 -25 -146 -80 -174 -172 -18 -60 -18 -88 2 -153 31
-104 128 -172 248 -173 76 0 136 17 175 51 l31 26 -24 29 -24 28 -29 -22 c-60
-44 -164 -47 -226 -6 -18 12 -42 41 -55 66 l-22 45 206 3 207 2 -6 58 c-2 32
-14 77 -25 99 -51 99 -173 150 -284 119z m138 -85 c41 -19 84 -72 84 -105 0
-14 -19 -16 -160 -16 l-160 0 15 37 c20 48 42 72 80 89 42 19 93 17 141 -5z"/>
<path d="M7547 19256 c-26 -7 -61 -26 -77 -41 l-30 -29 0 37 c0 36 -1 37 -40
37 l-40 0 0 -250 0 -250 45 0 45 0 0 155 c0 177 9 213 62 245 38 23 112 27
153 8 51 -23 60 -57 63 -240 l4 -168 44 0 44 0 0 156 c0 125 3 163 17 191 23
49 66 73 131 73 110 0 132 -43 132 -265 l0 -155 45 0 45 0 0 161 c0 192 -10
239 -61 290 -77 77 -224 73 -312 -9 l-27 -26 -16 22 c-37 53 -145 81 -227 58z"/>
<path d="M8751 19254 c-65 -17 -112 -51 -149 -106 -22 -33 -27 -55 -31 -115
-6 -125 41 -210 140 -252 138 -60 302 -1 357 128 23 55 19 159 -7 214 -55 113
-182 167 -310 131z m163 -92 c55 -33 71 -65 71 -150 0 -87 -20 -128 -78 -159
-46 -24 -127 -21 -171 7 -89 54 -103 215 -26 285 50 45 143 53 204 17z"/>
<path d="M10397 19259 c-56 -13 -90 -34 -127 -75 -46 -53 -60 -93 -60 -171 0
-75 28 -151 71 -190 93 -85 297 -88 373 -4 16 18 16 20 -7 46 l-24 28 -30 -22
c-86 -64 -233 -37 -278 49 -32 61 -35 60 185 60 l200 0 0 43 c0 66 -17 111
-60 160 -59 66 -157 97 -243 76z m126 -83 c39 -16 62 -40 82 -89 l15 -37 -160
0 c-179 0 -180 0 -138 68 37 61 131 88 201 58z"/>
<path d="M11027 19256 c-26 -7 -61 -26 -77 -41 l-30 -29 0 37 0 37 -45 0 -45
0 0 -250 0 -250 44 0 44 0 4 158 c3 143 5 160 26 193 23 38 80 69 127 69 23 0
25 4 25 45 0 50 0 50 -73 31z"/>
<path d="M11581 19260 c-47 -10 -131 -48 -131 -59 0 -5 18 -35 36 -59 1 -2 22
7 46 19 52 27 150 32 192 9 31 -16 56 -57 56 -93 0 -24 -1 -25 -117 -29 -128
-5 -165 -16 -202 -64 -26 -33 -28 -113 -4 -154 51 -87 227 -100 316 -22 16 14
17 13 17 -16 0 -31 2 -32 41 -32 l41 0 -4 193 c-3 180 -4 194 -26 229 -40 65
-156 100 -261 78z m199 -315 c0 -70 -56 -117 -141 -118 -83 -1 -128 43 -107
104 13 38 42 48 151 48 l97 1 0 -35z"/>
<path d="M12150 19263 c-57 -10 -88 -25 -121 -59 -30 -31 -34 -41 -34 -89 0
-85 36 -113 186 -144 108 -22 139 -44 123 -88 -19 -56 -141 -67 -242 -23 -24
11 -46 20 -48 20 -2 0 -11 -14 -19 -31 -21 -40 -9 -54 62 -75 66 -19 173 -21
230 -4 88 27 136 117 99 188 -23 45 -50 59 -154 82 -50 11 -102 25 -116 31
-50 23 -45 78 8 103 54 26 118 20 207 -18 11 -5 20 3 32 29 9 20 17 37 17 40
0 2 -21 10 -47 19 -53 17 -145 27 -183 19z"/>
<path d="M12930 19261 c-95 -20 -169 -85 -194 -172 -20 -65 -20 -92 -1 -155
51 -174 292 -237 423 -112 17 18 32 35 32 38 0 4 -15 15 -33 25 -33 17 -33 17
-62 -9 -76 -70 -205 -48 -259 44 -26 45 -26 136 0 181 54 92 180 113 263 43
l31 -26 30 22 c33 24 31 33 -15 73 -46 41 -145 63 -215 48z"/>
<path d="M13448 19256 c-90 -25 -146 -80 -174 -172 -18 -60 -18 -88 2 -153 31
-104 128 -172 248 -173 76 0 136 17 175 51 l31 26 -24 29 -24 28 -29 -22 c-60
-44 -164 -47 -226 -6 -18 12 -42 41 -55 66 l-22 45 206 3 207 2 -6 58 c-2 32
-14 77 -25 99 -51 99 -173 150 -284 119z m138 -85 c41 -19 84 -72 84 -105 0
-14 -19 -16 -160 -16 l-160 0 15 37 c20 48 42 72 80 89 42 19 93 17 141 -5z"/>
<path d="M14100 19261 c-42 -9 -77 -26 -107 -54 l-23 -20 0 36 c0 36 -1 37
-40 37 l-40 0 0 -250 0 -250 45 0 45 0 0 153 c0 125 3 158 18 186 23 47 61 72
116 78 l47 6 -3 40 c-3 45 -8 48 -58 38z"/>
<path d="M15690 19261 c-95 -20 -169 -85 -194 -172 -20 -65 -20 -92 -1 -155
51 -174 292 -237 423 -112 17 18 32 35 32 38 0 4 -15 15 -33 25 -33 17 -33 17
-62 -9 -76 -70 -205 -48 -259 44 -26 45 -26 136 0 181 54 92 180 113 263 43
l31 -26 30 22 c33 24 31 33 -15 73 -46 41 -145 63 -215 48z"/>
<path d="M16183 19260 c-47 -10 -133 -45 -133 -55 0 -10 30 -65 36 -65 2 0 22
9 42 19 113 58 233 23 248 -71 l6 -35 -119 -5 c-95 -3 -126 -8 -153 -23 -103
-61 -104 -186 0 -244 33 -19 57 -24 110 -23 70 0 99 10 138 45 l22 20 0 -31
c0 -31 1 -32 45 -32 l45 0 0 168 c0 92 -5 184 -10 204 -13 47 -55 97 -95 113
-42 18 -132 25 -182 15z m197 -311 c0 -72 -60 -122 -146 -122 -86 0 -133 48
-105 109 16 35 43 43 154 43 l97 1 0 -31z"/>
<path d="M16793 19260 c-78 -16 -139 -64 -179 -140 -28 -52 -26 -172 3 -226
28 -53 91 -107 143 -123 l41 -12 -7 -44 -6 -44 33 -3 c29 -2 35 -7 37 -30 3
-22 -2 -29 -22 -34 -15 -3 -42 -3 -60 0 -29 6 -35 3 -41 -14 -9 -29 -3 -33 63
-37 94 -7 148 42 122 111 -6 16 -22 32 -40 39 -39 15 -40 45 -2 52 75 16 107
29 140 59 39 36 39 54 -2 75 -24 14 -28 13 -55 -13 -78 -75 -215 -45 -262 58
-47 103 5 217 111 246 54 15 105 3 145 -31 39 -35 39 -35 77 -8 l29 21 -28 30
c-53 57 -154 86 -240 68z"/>
<path d="M17333 19260 c-131 -27 -214 -141 -200 -275 10 -93 71 -177 156 -212
50 -21 160 -19 213 5 149 66 195 262 92 397 -49 64 -168 103 -261 85z m109
-80 c46 -13 105 -77 114 -124 18 -100 -34 -193 -122 -215 -82 -21 -160 16
-195 93 -33 72 -19 154 35 204 50 47 101 60 168 42z"/>
<path d="M17918 19256 c-90 -25 -146 -80 -174 -172 -18 -60 -18 -88 2 -153 31
-104 128 -172 248 -173 76 0 136 17 175 51 l31 26 -24 29 -24 28 -29 -22 c-60
-44 -164 -47 -226 -6 -18 12 -42 41 -55 66 l-22 45 206 3 207 2 -6 58 c-2 32
-14 77 -25 99 -51 99 -173 150 -284 119z m138 -85 c41 -19 84 -72 84 -105 0
-14 -19 -16 -160 -16 l-160 0 15 37 c20 48 42 72 80 89 42 19 93 17 141 -5z"/>
<path d="M18452 19260 c-92 -19 -142 -72 -142 -151 0 -61 53 -111 135 -128
144 -29 156 -33 172 -58 15 -22 15 -26 -4 -51 -36 -48 -157 -52 -246 -7 -34
17 -42 14 -63 -26 l-15 -30 43 -19 c91 -40 232 -44 300 -9 67 34 96 92 78 158
-15 56 -51 78 -167 103 -54 11 -108 27 -120 34 -43 27 -24 85 33 104 43 15
132 7 175 -15 28 -15 29 -15 49 17 19 31 19 34 3 46 -39 29 -163 46 -231 32z"/>
<path d="M19243 19260 c-56 -12 -92 -32 -129 -72 -54 -57 -69 -95 -69 -178 0
-89 22 -139 85 -192 96 -83 271 -80 349 5 27 30 24 47 -13 66 -24 14 -28 13
-55 -13 -78 -75 -215 -45 -262 58 -47 103 5 217 111 246 54 15 105 3 145 -31
39 -35 39 -35 77 -8 l29 21 -28 30 c-53 57 -154 86 -240 68z"/>
<path d="M19783 19260 c-131 -27 -214 -141 -200 -275 10 -93 71 -177 156 -212
50 -21 160 -19 213 5 149 66 195 262 92 397 -49 64 -168 103 -261 85z m109
-80 c46 -13 105 -77 114 -124 18 -100 -34 -193 -122 -215 -82 -21 -160 16
-195 93 -33 72 -19 154 35 204 50 47 101 60 168 42z"/>
<path d="M20435 19261 c-35 -9 -73 -28 -97 -49 -17 -14 -18 -13 -18 16 0 31
-1 32 -45 32 l-45 0 0 -250 0 -250 45 0 45 0 0 153 c0 173 14 223 69 251 40
21 130 21 160 0 42 -30 51 -71 51 -244 l0 -160 45 0 45 0 0 152 c0 131 3 157
20 193 26 53 64 75 132 75 109 0 128 -37 128 -260 l0 -160 45 0 45 0 0 168 c0
92 -5 185 -11 207 -17 61 -73 110 -140 124 -83 17 -177 -7 -223 -58 l-19 -21
-37 34 c-25 22 -55 38 -89 45 -57 12 -63 12 -106 2z"/>
<path d="M21591 19260 c-47 -10 -131 -48 -131 -59 0 -5 18 -35 36 -59 1 -2 22
7 46 19 52 27 150 32 192 9 31 -16 56 -57 56 -93 0 -24 -1 -25 -117 -29 -128
-5 -165 -16 -202 -64 -26 -33 -28 -113 -4 -154 51 -87 227 -100 316 -22 16 14
17 13 17 -16 0 -31 2 -32 41 -32 l41 0 -4 193 c-3 180 -4 194 -26 229 -40 65
-156 100 -261 78z m199 -315 c0 -70 -56 -117 -141 -118 -83 -1 -128 43 -107
104 13 38 42 48 151 48 l97 1 0 -35z"/>
<path d="M23137 19259 c-56 -13 -90 -34 -127 -75 -46 -53 -60 -93 -60 -171 0
-75 28 -151 71 -190 93 -85 297 -88 373 -4 16 18 16 20 -7 46 l-24 28 -30 -22
c-86 -64 -233 -37 -278 49 -32 61 -35 60 185 60 l200 0 0 43 c0 66 -17 111
-60 160 -59 66 -157 97 -243 76z m126 -83 c39 -16 62 -40 82 -89 l15 -37 -160
0 c-179 0 -180 0 -138 68 37 61 131 88 201 58z"/>
<path d="M23990 19259 c-66 -13 -130 -57 -165 -114 -27 -44 -30 -56 -30 -134
0 -95 12 -126 67 -182 49 -48 108 -71 187 -71 75 0 120 15 169 56 40 35 40 51
2 71 -30 15 -32 15 -61 -9 -113 -96 -279 -15 -279 136 0 147 168 231 276 136
33 -29 33 -29 64 -12 37 22 38 33 3 67 -53 50 -149 74 -233 56z"/>
<path d="M25158 19256 c-90 -25 -146 -80 -174 -172 -18 -60 -18 -88 2 -153 31
-104 128 -172 248 -173 76 0 136 17 175 51 l31 26 -24 29 -24 28 -29 -22 c-60
-44 -164 -47 -226 -6 -18 12 -42 41 -55 66 l-22 45 206 3 207 2 -6 58 c-2 32
-14 77 -25 99 -51 99 -173 150 -284 119z m138 -85 c41 -19 84 -72 84 -105 0
-14 -19 -16 -160 -16 l-160 0 15 37 c20 48 42 72 80 89 42 19 93 17 141 -5z"/>
<path d="M25825 19263 c-55 -12 -86 -26 -109 -50 l-26 -26 0 37 0 36 -45 0
-45 0 0 -250 0 -250 45 0 45 0 0 148 c0 134 2 152 23 192 25 49 73 80 124 80
32 0 33 1 33 45 0 46 -2 48 -45 38z"/>
<path d="M26177 19256 c-26 -7 -61 -26 -77 -41 l-30 -29 0 37 c0 36 -1 37 -40
37 l-40 0 0 -250 0 -250 45 0 45 0 0 155 c0 177 9 213 62 245 38 23 112 27
153 8 51 -23 60 -57 63 -240 l4 -168 44 0 44 0 0 156 c0 125 3 163 17 191 23
49 66 73 131 73 110 0 132 -43 132 -265 l0 -155 45 0 45 0 0 161 c0 192 -10
239 -61 290 -77 77 -224 73 -312 -9 l-27 -26 -16 22 c-37 53 -145 81 -227 58z"/>
<path d="M27090 19257 c-67 -16 -120 -43 -120 -61 0 -8 8 -23 18 -35 l17 -21
41 20 c58 29 131 36 176 17 40 -17 63 -46 71 -93 l6 -32 -117 -4 c-136 -5
-183 -22 -214 -78 -57 -108 24 -213 165 -212 69 0 111 13 145 44 l22 21 0 -31
c0 -31 1 -32 45 -32 l45 0 0 155 c0 168 -11 240 -42 280 -46 58 -156 85 -258
62z m210 -312 c0 -50 -47 -101 -106 -113 -115 -25 -198 55 -129 123 23 23 31
25 130 25 l105 0 0 -35z"/>
<path d="M27755 19259 c-22 -5 -57 -23 -77 -40 l-38 -30 0 36 c0 35 0 35 -45
35 l-45 0 0 -250 0 -250 44 0 44 0 4 158 c4 175 14 207 71 242 39 24 125 27
166 5 49 -25 61 -75 61 -250 l0 -155 45 0 45 0 0 163 c0 168 -9 223 -42 270
-40 56 -148 87 -233 66z"/>
<path d="M28399 19256 c-25 -6 -60 -22 -77 -35 l-32 -22 0 30 c0 30 -1 31 -45
31 l-45 0 0 -250 0 -250 45 0 45 0 0 150 c0 168 8 199 59 243 28 23 42 27 97
27 56 0 67 -3 96 -29 l33 -29 3 -181 3 -181 45 0 44 0 0 180 c0 129 -4 190
-14 213 -20 49 -77 93 -136 106 -61 13 -62 13 -121 -3z"/>
<path d="M14670 19010 l0 -250 45 0 45 0 0 250 0 250 -45 0 -45 0 0 -250z"/>
<path d="M15270 19010 l0 -250 45 0 45 0 0 250 0 250 -45 0 -45 0 0 -250z"/>
<path d="M23570 19010 l0 -250 45 0 45 0 0 250 0 250 -45 0 -45 0 0 -250z"/>
<path d="M2040 17490 c-24 -24 -25 -48 -4 -78 23 -33 97 -32 120 3 32 49 -3
95 -72 95 -13 0 -33 -9 -44 -20z"/>
<path d="M8130 17490 c-24 -24 -25 -48 -4 -78 23 -33 97 -32 120 3 32 49 -3
95 -72 95 -13 0 -33 -9 -44 -20z"/>
<path d="M13890 17503 c-22 -9 -30 -24 -30 -58 0 -42 16 -55 66 -55 50 0 74
19 74 60 0 46 -56 73 -110 53z"/>
<path d="M15809 17489 c-15 -22 -16 -22 -67 -5 -92 31 -146 7 -154 -69 -3 -25
1 -31 21 -33 17 -3 30 4 42 19 l17 23 50 -17 c90 -33 149 -7 155 68 2 26 -2
30 -24 33 -18 2 -30 -4 -40 -19z"/>
<path d="M6382 17481 c-35 -23 -52 -55 -52 -101 0 -20 -9 -35 -30 -50 -22 -15
-30 -30 -30 -51 0 -24 4 -29 25 -29 l25 0 0 -150 0 -150 70 0 69 0 3 148 3
147 43 3 43 3 -3 47 -3 47 -42 3 c-43 3 -51 13 -34 41 6 9 20 12 40 9 28 -4
31 -1 45 39 18 52 15 55 -73 60 -54 4 -72 1 -99 -16z"/>
<path d="M8582 17401 l3 -99 -28 24 c-34 28 -102 33 -146 9 -74 -38 -103 -220
-50 -315 44 -81 131 -101 197 -45 l29 24 13 -24 c12 -22 20 -25 67 -25 l53 0
0 275 0 275 -71 0 -70 0 3 -99z m-8 -183 c24 -34 21 -123 -4 -148 -48 -48 -95
-8 -95 80 0 33 6 64 14 73 20 25 67 21 85 -5z"/>
<path d="M9492 17401 l3 -99 -28 24 c-34 28 -102 33 -146 9 -74 -38 -103 -220
-50 -315 44 -81 131 -101 197 -45 l29 24 13 -24 c12 -22 20 -25 67 -25 l53 0
0 275 0 275 -71 0 -70 0 3 -99z m-8 -183 c24 -34 21 -123 -4 -148 -48 -48 -95
-8 -95 80 0 33 6 64 14 73 20 25 67 21 85 -5z"/>
<path d="M12750 17225 l0 -275 65 0 65 0 0 275 0 275 -65 0 -65 0 0 -275z"/>
<path d="M14480 17225 l0 -275 65 0 65 0 0 275 0 275 -65 0 -65 0 0 -275z"/>
<path d="M17350 17225 l0 -275 65 0 65 0 0 275 0 275 -65 0 -65 0 0 -275z"/>
<path d="M21042 17401 l3 -99 -28 24 c-34 28 -102 33 -146 9 -74 -38 -103
-220 -50 -315 44 -81 131 -101 197 -45 l29 24 13 -24 c12 -22 20 -25 67 -25
l53 0 0 275 0 275 -71 0 -70 0 3 -99z m-8 -183 c24 -34 21 -123 -4 -148 -48
-48 -95 -8 -95 80 0 33 6 64 14 73 20 25 67 21 85 -5z"/>
<path d="M23344 17489 c-3 -6 -3 -52 1 -102 l7 -92 -27 27 c-67 67 -186 23
-214 -79 -14 -49 -14 -137 0 -186 6 -22 25 -55 43 -75 30 -32 39 -36 85 -36
42 0 56 5 79 28 l29 27 17 -26 c14 -21 24 -25 66 -25 l50 0 0 275 0 275 -64 0
c-36 0 -68 -5 -72 -11z m-2 -271 c6 -13 12 -46 12 -75 0 -81 -48 -119 -94 -73
-25 25 -28 114 -4 148 21 30 69 30 86 0z"/>
<path d="M16694 17447 c-91 -140 -98 -401 -16 -552 l27 -50 58 -3 c31 -2 57 0
57 3 0 3 -12 29 -26 57 -72 143 -70 368 5 519 l29 59 -56 0 c-53 0 -58 -2 -78
-33z"/>
<path d="M1650 17205 l0 -255 65 0 65 0 0 95 0 94 78 3 77 3 3 52 3 52 -78 3
-78 3 -3 48 -3 47 85 0 86 0 0 55 0 55 -150 0 -150 0 0 -255z"/>
<path d="M21805 17387 c-9 -24 -29 -51 -45 -62 -36 -24 -43 -75 -11 -75 16 0
19 -11 23 -116 4 -94 9 -121 25 -142 27 -36 77 -53 137 -46 75 8 86 17 86 70
l0 45 -44 -6 c-58 -9 -68 8 -64 113 l3 77 48 3 47 3 0 50 0 49 -50 0 -50 0 0
40 0 40 -44 0 c-43 0 -45 -1 -61 -43z"/>
<path d="M1121 17353 c-124 -73 -251 -222 -319 -374 l-27 -60 -97 75 c-53 42
-104 76 -112 76 -34 0 -70 -94 -48 -126 4 -6 50 -32 102 -57 52 -25 119 -64
148 -87 35 -26 54 -36 57 -28 63 181 90 240 153 338 46 72 142 172 209 216
102 67 43 91 -66 27z"/>
<path d="M2410 17350 c-90 -12 -140 -57 -160 -146 -23 -99 14 -200 85 -237 51
-27 155 -28 203 -4 30 16 32 21 32 68 0 45 -2 50 -17 44 -66 -25 -105 -29
-131 -15 -35 20 -49 77 -33 132 16 50 46 66 100 50 54 -17 55 -16 70 26 8 20
16 42 18 48 8 23 -94 43 -167 34z"/>
<path d="M3306 17349 c-16 -5 -42 -20 -58 -36 l-28 -27 -12 32 c-12 30 -16 32
-60 32 l-48 0 0 -200 0 -200 65 0 65 0 0 104 c0 131 7 152 58 166 22 5 47 7
56 4 19 -7 23 3 29 73 3 46 2 52 -17 55 -12 3 -34 1 -50 -3z"/>
<path d="M3785 17354 c-6 -1 -27 -5 -48 -9 -56 -9 -104 -57 -123 -122 -18 -61
-13 -136 11 -183 36 -70 135 -109 238 -95 90 13 97 18 97 74 l0 49 -47 -14
c-72 -22 -120 -18 -148 11 -14 13 -25 29 -25 35 0 6 45 10 126 10 l127 0 -5
65 c-9 106 -53 159 -144 173 -27 5 -54 7 -59 6z m59 -110 c31 -31 20 -44 -39
-44 -48 0 -55 3 -55 20 0 37 65 54 94 24z"/>
<path d="M4272 17349 c-18 -4 -43 -16 -56 -28 -28 -27 -32 -26 -40 4 -6 22
-11 25 -56 25 l-50 0 0 -200 0 -200 65 0 65 0 0 103 c0 125 12 174 47 190 22
10 28 8 44 -12 16 -20 19 -41 19 -152 l0 -129 69 0 69 0 4 136 c3 121 5 137
22 150 25 18 41 18 60 -2 13 -12 16 -41 16 -150 l0 -134 70 0 70 0 0 150 c0
213 -19 250 -131 250 -42 0 -64 -6 -90 -23 -34 -23 -34 -23 -61 -4 -32 24 -92
35 -136 26z"/>
<path d="M5118 17349 c-67 -10 -113 -41 -138 -95 -30 -60 -26 -187 6 -231 53
-71 142 -97 238 -69 l56 17 0 55 c0 50 -2 55 -17 49 -43 -18 -94 -27 -117 -21
-34 8 -48 38 -48 100 1 43 5 55 28 74 27 24 36 24 106 7 22 -6 27 -2 42 34 9
23 16 45 16 50 0 22 -105 40 -172 30z"/>
<path d="M5499 17349 c-26 -4 -56 -12 -67 -18 -66 -35 -104 -142 -83 -234 17
-76 59 -123 127 -143 115 -33 220 17 254 122 15 45 8 140 -14 182 -36 69 -122
105 -217 91z m88 -129 c7 -14 13 -45 13 -70 0 -63 -18 -94 -56 -98 -18 -2 -36
3 -43 11 -21 26 -25 108 -7 150 14 35 19 38 48 35 23 -2 36 -10 45 -28z"/>
<path d="M6739 17349 c-26 -4 -56 -12 -67 -18 -66 -35 -104 -142 -83 -234 17
-76 59 -123 127 -143 115 -33 220 17 254 122 15 45 8 140 -14 182 -36 69 -122
105 -217 91z m88 -129 c7 -14 13 -45 13 -70 0 -63 -18 -94 -56 -98 -18 -2 -36
3 -43 11 -21 26 -25 108 -7 150 14 35 19 38 48 35 23 -2 36 -10 45 -28z"/>
<path d="M7602 17349 c-18 -4 -43 -16 -56 -28 -28 -27 -32 -26 -40 4 -6 22
-11 25 -56 25 l-50 0 0 -200 0 -200 65 0 65 0 0 103 c0 125 12 174 47 190 22
10 28 8 44 -12 16 -20 19 -41 19 -152 l0 -129 69 0 69 0 4 136 c3 121 5 137
22 150 25 18 41 18 60 -2 13 -12 16 -41 16 -150 l0 -134 70 0 70 0 0 150 c0
213 -19 250 -131 250 -42 0 -64 -6 -90 -23 -34 -23 -34 -23 -61 -4 -32 24 -92
35 -136 26z"/>
<path d="M8945 17349 c-33 -4 -72 -12 -87 -18 l-27 -10 18 -43 c19 -45 21 -46
89 -27 51 14 92 1 92 -29 0 -17 -10 -20 -72 -24 -123 -8 -176 -54 -165 -145
12 -106 137 -146 229 -73 l25 19 11 -24 c10 -22 18 -25 63 -25 l51 0 -4 158
c-2 126 -6 162 -20 180 -38 55 -97 73 -203 61z m85 -246 c0 -51 -60 -84 -90
-48 -26 31 12 74 68 75 17 0 22 -6 22 -27z"/>
<path d="M9858 17349 c-99 -15 -148 -82 -148 -204 0 -89 26 -139 90 -175 38
-21 57 -25 125 -24 44 1 92 6 108 12 24 10 27 16 27 61 l0 49 -47 -14 c-83
-25 -141 -13 -162 32 l-11 24 127 0 126 0 -5 71 c-10 130 -90 188 -230 168z
m83 -99 c10 -6 19 -20 19 -30 0 -18 -7 -20 -55 -20 -59 0 -70 13 -39 44 18 18
47 20 75 6z"/>
<path d="M10530 17354 c-73 -11 -94 -18 -121 -41 -96 -81 -91 -273 9 -339 47
-32 119 -39 186 -20 l56 17 0 54 c0 30 -1 55 -2 55 -2 0 -21 -7 -43 -15 -57
-20 -83 -18 -110 10 -36 35 -36 115 1 152 26 26 33 26 107 8 23 -6 28 -2 41
30 20 48 20 61 -1 70 -24 9 -104 21 -123 19z"/>
<path d="M10885 17350 c-61 -9 -107 -40 -133 -90 -19 -38 -23 -57 -20 -121 2
-62 8 -83 30 -116 35 -53 87 -77 163 -77 119 0 186 63 193 181 5 80 -16 140
-64 183 -19 16 -38 30 -42 30 -4 1 -25 4 -47 8 -22 4 -58 5 -80 2z m79 -122
c18 -25 21 -112 7 -151 -17 -43 -82 -40 -96 4 -11 34 -8 124 5 148 15 29 64
28 84 -1z"/>
<path d="M11415 17350 c-38 -8 -75 -28 -75 -40 0 -21 -20 -9 -26 15 -6 23 -11
25 -60 25 l-54 0 0 -200 0 -200 70 0 70 0 0 114 c0 129 8 161 45 178 21 10 29
9 43 -6 14 -14 18 -41 20 -151 l4 -135 63 0 63 0 4 123 c2 67 9 132 16 144 17
31 49 39 73 17 17 -15 19 -31 19 -151 l0 -133 70 0 70 0 0 143 c0 170 -9 211
-53 237 -48 30 -137 27 -174 -4 l-27 -24 -27 20 c-32 24 -93 37 -134 28z"/>
<path d="M12245 17349 c-59 -6 -115 -23 -115 -34 0 -3 9 -23 20 -44 l19 -39
47 14 c60 18 79 18 98 -2 31 -30 20 -44 -36 -44 -68 0 -121 -15 -155 -44 -36
-31 -44 -116 -14 -163 37 -59 141 -67 202 -16 16 14 31 24 33 22 2 -2 9 -14
15 -26 9 -19 20 -23 56 -23 l45 0 0 156 c0 165 -7 195 -52 223 -30 19 -98 27
-163 20z m85 -244 c0 -46 -52 -79 -88 -56 -21 13 -10 54 18 68 42 21 70 17 70
-12z"/>
<path d="M13115 17350 c-51 -8 -76 -22 -109 -60 -69 -83 -58 -234 22 -302 56
-47 181 -59 265 -26 24 9 27 15 27 59 0 27 -1 49 -2 49 -2 0 -21 -7 -43 -15
-59 -21 -117 -19 -149 6 -52 41 -37 49 94 49 l120 0 0 61 c0 71 -20 121 -61
150 -34 24 -108 37 -164 29z m87 -107 c34 -31 23 -43 -42 -43 -33 0 -60 3 -60
8 0 4 7 18 16 30 18 26 60 29 86 5z"/>
<path d="M13534 17348 c-59 -9 -95 -34 -113 -81 -17 -46 -8 -97 24 -135 24
-29 24 -29 5 -47 -24 -21 -26 -67 -5 -85 18 -15 19 -30 2 -30 -20 0 -56 -37
-63 -65 -3 -14 0 -39 7 -56 18 -46 75 -69 170 -69 95 0 159 21 199 66 40 46
43 118 6 160 -21 25 -31 28 -122 35 -117 9 -104 6 -104 24 0 11 11 15 41 15
62 0 117 20 145 53 19 22 24 40 24 82 0 48 2 53 25 59 21 5 25 12 25 41 l0 34
-109 3 c-61 2 -131 0 -157 -4z m75 -82 c7 -8 11 -34 9 -58 -3 -37 -6 -43 -27
-46 -15 -3 -30 3 -38 14 -38 52 16 138 56 90z m30 -332 c25 -5 31 -11 29 -28
-7 -51 -159 -59 -166 -8 -5 35 57 52 137 36z"/>
<path d="M14845 17349 c-59 -6 -115 -23 -115 -34 0 -3 9 -23 20 -44 l19 -39
47 14 c60 18 79 18 98 -2 31 -30 20 -44 -36 -44 -68 0 -121 -15 -155 -44 -36
-31 -44 -116 -14 -163 37 -59 141 -67 202 -16 16 14 31 24 33 22 2 -2 9 -14
15 -26 9 -19 20 -23 56 -23 l45 0 0 156 c0 165 -7 195 -52 223 -30 19 -98 27
-163 20z m85 -244 c0 -46 -52 -79 -88 -56 -21 13 -10 54 18 68 42 21 70 17 70
-12z"/>
<path d="M15297 17349 c-55 -9 -109 -45 -134 -92 -13 -23 -18 -55 -18 -113 0
-71 3 -85 27 -121 16 -25 43 -48 67 -59 35 -15 39 -20 29 -38 -8 -15 -8 -21 1
-24 20 -7 41 -33 35 -44 -4 -5 -19 -8 -35 -6 -28 4 -29 3 -29 -34 l0 -38 58 0
c63 0 96 20 107 63 8 28 -10 76 -30 83 -20 8 -9 24 16 24 11 0 33 7 49 15 27
14 30 20 30 65 0 28 -3 50 -7 50 -5 0 -26 -7 -48 -15 -58 -21 -83 -18 -112 11
-23 23 -25 31 -21 81 7 87 40 105 135 77 20 -5 25 0 43 41 11 26 20 48 20 50
0 16 -123 32 -183 24z"/>
<path d="M16135 17350 c-122 -17 -185 -142 -143 -282 26 -87 127 -140 228
-119 103 21 150 81 150 195 0 149 -89 226 -235 206z m86 -121 c6 -12 11 -47
11 -79 0 -76 -13 -100 -56 -100 -25 0 -35 6 -44 25 -17 37 -15 126 4 153 20
29 69 30 85 1z"/>
<path d="M17697 17350 c-51 -6 -95 -33 -115 -71 -21 -39 -10 -115 22 -148 24
-25 25 -29 11 -41 -34 -28 -38 -51 -16 -81 25 -34 26 -39 6 -39 -9 0 -27 -11
-40 -25 -27 -26 -33 -72 -14 -107 18 -33 86 -58 165 -58 137 0 220 46 231 128
13 93 -28 132 -139 132 -70 0 -118 12 -118 30 0 5 23 10 53 10 107 1 172 56
165 143 -2 37 0 41 25 50 24 8 28 14 25 41 l-3 31 -105 5 c-58 3 -127 3 -153
0z m71 -82 c13 -13 16 -66 6 -92 -7 -19 -45 -21 -62 -4 -7 7 -12 28 -12 48 0
39 14 60 40 60 9 0 21 -5 28 -12z m37 -338 c66 -25 -28 -83 -104 -64 -41 10
-53 40 -25 61 21 15 92 17 129 3z"/>
<path d="M18705 17348 c-21 -5 -49 -18 -62 -30 l-22 -21 -10 27 c-9 23 -16 26
-61 26 l-50 0 0 -200 0 -200 63 0 64 0 6 124 c6 137 14 162 54 172 20 5 31 2
45 -16 15 -19 18 -41 18 -151 l0 -129 70 0 70 0 0 131 c0 147 -11 207 -45 239
-29 28 -87 39 -140 28z"/>
<path d="M19762 17349 c-18 -4 -44 -17 -57 -29 l-24 -23 -10 27 c-10 24 -15
26 -66 26 l-55 0 0 -285 0 -285 71 0 71 0 -4 104 c-3 97 -2 104 13 90 28 -25
86 -37 123 -24 77 25 111 98 104 225 -6 115 -31 153 -118 177 -8 3 -30 1 -48
-3z m10 -116 c14 -12 18 -31 18 -84 0 -59 -3 -70 -22 -83 -29 -20 -34 -20 -58
4 -16 16 -20 33 -20 80 0 47 4 64 20 80 24 24 38 25 62 3z"/>
<path d="M20226 17349 c-16 -5 -42 -20 -58 -36 l-28 -27 -12 32 c-12 30 -16
32 -60 32 l-48 0 0 -200 0 -200 65 0 65 0 0 104 c0 131 7 152 58 166 22 5 47
7 56 4 19 -7 23 3 29 73 3 46 2 52 -17 55 -12 3 -34 1 -50 -3z"/>
<path d="M20495 17350 c-61 -9 -107 -40 -133 -90 -19 -38 -23 -57 -20 -121 2
-62 8 -83 30 -116 35 -53 87 -77 163 -77 119 0 186 63 193 181 5 80 -16 140
-64 183 -19 16 -38 30 -42 30 -4 1 -25 4 -47 8 -22 4 -58 5 -80 2z m79 -122
c18 -25 21 -112 7 -151 -17 -43 -82 -40 -96 4 -11 34 -8 124 5 148 15 29 64
28 84 -1z"/>
<path d="M22656 17348 c-63 -9 -99 -35 -110 -80 -18 -73 16 -122 114 -163 101
-42 64 -80 -50 -51 -34 9 -64 16 -66 16 -2 0 -4 -25 -4 -55 l0 -54 38 -8 c20
-4 69 -8 108 -7 113 0 164 41 164 131 0 56 -33 94 -115 128 -36 16 -64 33 -62
39 4 12 66 13 113 2 29 -7 31 -6 47 34 l16 41 -27 10 c-46 18 -115 25 -166 17z"/>
<path d="M23745 17354 c-6 -1 -27 -5 -48 -9 -56 -9 -104 -57 -123 -122 -18
-61 -13 -136 11 -183 36 -70 135 -109 238 -95 90 13 97 18 97 74 l0 49 -47
-14 c-72 -22 -120 -18 -148 11 -14 13 -25 29 -25 35 0 6 45 10 126 10 l127 0
-5 65 c-9 106 -53 159 -144 173 -27 5 -54 7 -59 6z m59 -110 c31 -31 20 -44
-39 -44 -48 0 -55 3 -55 20 0 37 65 54 94 24z"/>
<path d="M24598 17349 c-99 -15 -148 -82 -148 -204 0 -89 26 -139 90 -175 38
-21 57 -25 125 -24 44 1 92 6 108 12 24 10 27 16 27 61 l0 49 -47 -14 c-83
-25 -141 -13 -162 32 l-11 24 127 0 126 0 -5 71 c-10 130 -90 188 -230 168z
m83 -99 c10 -6 19 -20 19 -30 0 -18 -7 -20 -55 -20 -59 0 -70 13 -39 44 18 18
47 20 75 6z"/>
<path d="M25117 17349 c-20 -3 -48 -16 -62 -29 l-24 -23 -10 27 c-9 23 -16 26
-61 26 l-50 0 0 -200 0 -200 65 0 65 0 1 83 c1 119 12 187 34 203 24 18 40 18
59 -2 13 -12 16 -41 16 -150 l0 -134 70 0 70 0 0 124 c0 117 1 127 24 153 21
24 27 26 48 16 32 -14 38 -45 38 -184 l0 -109 66 0 65 0 -3 170 c-3 168 -3
170 -29 196 -46 46 -141 49 -199 6 l-27 -20 -20 20 c-25 24 -84 36 -136 27z"/>
<path d="M25926 17348 c-63 -9 -99 -35 -110 -80 -18 -73 16 -122 114 -163 101
-42 64 -80 -50 -51 -34 9 -64 16 -66 16 -2 0 -4 -25 -4 -55 l0 -54 38 -8 c20
-4 69 -8 108 -7 113 0 164 41 164 131 0 56 -33 94 -115 128 -36 16 -64 33 -62
39 4 12 66 13 113 2 29 -7 31 -6 47 34 l16 41 -27 10 c-46 18 -115 25 -166 17z"/>
<path d="M26365 17354 c-6 -1 -27 -5 -48 -9 -56 -9 -104 -57 -123 -122 -18
-61 -13 -136 11 -183 36 -70 135 -109 238 -95 90 13 97 18 97 74 l0 49 -47
-14 c-72 -22 -120 -18 -148 11 -14 13 -25 29 -25 35 0 6 45 10 126 10 l127 0
-5 65 c-9 106 -53 159 -144 173 -27 5 -54 7 -59 6z m59 -110 c31 -31 20 -44
-39 -44 -48 0 -55 3 -55 20 0 37 65 54 94 24z"/>
<path d="M26856 17349 c-16 -5 -42 -20 -58 -36 l-28 -27 -12 32 c-12 30 -16
32 -60 32 l-48 0 0 -200 0 -200 65 0 65 0 0 104 c0 131 7 152 58 166 22 5 47
7 56 4 19 -7 23 3 29 73 3 46 2 52 -17 55 -12 3 -34 1 -50 -3z"/>
<path d="M2030 17150 l0 -200 65 0 65 0 0 200 0 200 -65 0 -65 0 0 -200z"/>
<path d="M2713 17339 c-43 -12 -45 -19 -26 -68 12 -31 20 -40 32 -36 9 4 37
11 63 17 52 12 78 1 78 -33 0 -16 -8 -19 -47 -19 -68 0 -122 -18 -155 -50 -23
-23 -28 -37 -28 -77 0 -63 17 -94 63 -117 49 -23 115 -15 157 20 l30 26 11
-26 c11 -23 18 -26 61 -26 l48 0 0 153 c0 168 -5 188 -59 224 -29 20 -46 23
-115 22 -45 0 -95 -5 -113 -10z m150 -244 c-3 -35 -28 -57 -63 -53 -36 4 -36
57 0 75 41 21 65 13 63 -22z"/>
<path d="M5820 17150 l0 -200 70 0 70 0 0 125 c0 120 1 127 25 150 30 31 49
32 69 3 13 -18 16 -51 16 -150 l0 -128 70 0 70 0 0 145 c0 160 -9 197 -55 233
-40 32 -129 31 -177 -2 l-36 -24 -11 24 c-9 21 -18 24 -61 24 l-50 0 0 -200z"/>
<path d="M7060 17150 l0 -200 64 0 64 0 3 115 c4 102 7 117 26 136 16 17 34
22 67 22 43 0 46 2 46 26 0 14 3 43 6 64 l7 37 -44 0 c-35 0 -53 -7 -82 -31
l-37 -31 -11 31 c-10 29 -14 31 -60 31 l-49 0 0 -200z"/>
<path d="M8120 17150 l0 -200 65 0 65 0 0 200 0 200 -65 0 -65 0 0 -200z"/>
<path d="M13860 17150 l0 -200 70 0 70 0 -2 198 -3 197 -67 3 -68 3 0 -201z"/>
<path d="M14143 17330 c-40 -24 -53 -48 -53 -99 0 -54 33 -91 114 -125 131
-56 57 -86 -96 -40 -16 5 -18 -2 -18 -50 l0 -55 38 -8 c20 -4 66 -8 102 -8
118 1 177 52 167 142 -6 57 -32 84 -113 118 -35 15 -64 33 -64 41 0 19 60 18
104 0 33 -14 33 -14 50 20 9 19 16 41 16 48 0 37 -192 50 -247 16z"/>
<path d="M15613 17339 c-44 -13 -48 -24 -27 -70 12 -29 22 -38 33 -34 87 34
133 30 139 -12 3 -19 -3 -21 -65 -25 -79 -5 -134 -28 -154 -65 -19 -35 -16
-106 5 -138 39 -60 146 -69 206 -19 l30 26 11 -26 c11 -23 18 -26 61 -26 l48
0 0 145 c0 166 -10 203 -62 235 -26 16 -49 20 -113 19 -44 0 -94 -5 -112 -10z
m147 -236 c0 -54 -67 -86 -90 -43 -14 26 2 57 32 63 52 10 58 8 58 -20z"/>
<path d="M16963 17339 c-43 -12 -45 -19 -26 -68 12 -31 20 -40 32 -36 9 4 37
11 63 17 52 12 78 1 78 -33 0 -16 -8 -19 -47 -19 -68 0 -122 -18 -155 -50 -23
-23 -28 -37 -28 -77 0 -63 17 -94 63 -117 49 -23 115 -15 157 20 l30 26 11
-26 c11 -23 18 -26 61 -26 l48 0 0 153 c0 168 -5 188 -59 224 -29 20 -46 23
-115 22 -45 0 -95 -5 -113 -10z m150 -244 c-3 -35 -28 -57 -63 -53 -36 4 -36
57 0 75 41 21 65 13 63 -22z"/>
<path d="M18017 17343 c-10 -9 -8 -239 2 -291 10 -53 43 -89 93 -103 50 -13
102 -3 139 28 l29 25 10 -26 c8 -23 15 -26 60 -26 l50 0 0 200 0 201 -67 -3
-68 -3 -5 -133 c-4 -117 -7 -135 -24 -148 -28 -20 -53 -17 -70 8 -13 18 -16
51 -16 150 l0 128 -63 0 c-35 0 -67 -3 -70 -7z"/>
<path d="M19035 17332 c-47 -29 -58 -49 -57 -99 0 -57 26 -85 114 -128 34 -16
64 -35 66 -42 8 -27 -89 -25 -161 2 -15 6 -17 0 -17 -48 0 -49 3 -55 23 -60
108 -26 208 -14 250 31 34 36 43 88 24 135 -16 37 -31 48 -112 83 -28 12 -52
30 -53 39 -4 16 2 17 45 12 26 -3 58 -9 70 -12 18 -6 24 -1 37 30 21 50 21 50
-23 63 -61 19 -171 15 -206 -6z"/>
<path d="M21270 17206 c0 -80 5 -157 11 -173 34 -90 154 -120 229 -56 l29 24
7 -25 c6 -24 11 -26 60 -26 l54 0 0 200 0 200 -70 0 -70 0 0 -120 c0 -70 -5
-130 -12 -145 -15 -33 -53 -43 -78 -20 -18 16 -20 32 -20 152 l0 133 -70 0
-70 0 0 -144z"/>
<path d="M22175 17336 c-138 -60 -139 -301 -1 -373 41 -22 150 -22 191 -1 69
37 99 91 99 183 2 132 -67 205 -194 204 -36 0 -79 -6 -95 -13z m136 -103 c19
-22 19 -144 0 -167 -21 -25 -72 -17 -89 14 -16 31 -11 132 7 154 17 21 65 20
82 -1z"/>
<path d="M23984 17333 c3 -10 37 -99 75 -198 l68 -180 69 -3 69 -3 68 178 c94
247 93 223 10 223 l-69 0 -39 -132 -39 -133 -19 65 c-10 36 -27 95 -38 133
l-20 67 -70 0 c-62 0 -70 -2 -65 -17z"/>
<path d="M5750 16503 c-22 -9 -30 -24 -30 -58 0 -42 16 -55 66 -55 50 0 74 19
74 60 0 46 -56 73 -110 53z"/>
<path d="M6272 16494 c-26 -18 -30 -65 -6 -88 18 -18 76 -21 105 -6 28 15 26
74 -3 94 -12 9 -34 16 -48 16 -14 0 -36 -7 -48 -16z"/>
<path d="M17462 16494 c-26 -18 -30 -65 -6 -88 18 -18 76 -21 105 -6 28 15 26
74 -3 94 -12 9 -34 16 -48 16 -14 0 -36 -7 -48 -16z"/>
<path d="M18370 16490 c-24 -24 -25 -48 -4 -78 23 -33 97 -32 120 3 32 49 -3
95 -72 95 -13 0 -33 -9 -44 -20z"/>
<path d="M23710 16503 c-22 -9 -30 -24 -30 -58 0 -42 16 -55 66 -55 50 0 74
19 74 60 0 46 -56 73 -110 53z"/>
<path d="M6032 16481 c-35 -23 -52 -55 -52 -101 0 -20 -9 -35 -30 -50 -22 -15
-30 -30 -30 -51 0 -24 4 -29 25 -29 l25 0 0 -150 0 -150 70 0 69 0 3 148 3
147 43 3 43 3 -3 47 -3 47 -42 3 c-43 3 -51 13 -34 41 6 9 20 12 40 9 28 -4
31 -1 45 39 18 52 15 55 -73 60 -54 4 -72 1 -99 -16z"/>
<path d="M7552 16401 l3 -99 -28 24 c-34 28 -102 33 -146 9 -74 -38 -103 -220
-50 -315 44 -81 131 -101 197 -45 l29 24 13 -24 c12 -22 20 -25 67 -25 l53 0
0 275 0 275 -71 0 -70 0 3 -99z m-8 -183 c24 -34 21 -123 -4 -148 -48 -48 -95
-8 -95 80 0 33 6 64 14 73 20 25 67 21 85 -5z"/>
<path d="M11322 16401 l3 -99 -28 24 c-34 28 -102 33 -146 9 -74 -38 -103
-220 -50 -315 44 -81 131 -101 197 -45 l29 24 13 -24 c12 -22 20 -25 67 -25
l53 0 0 275 0 275 -71 0 -70 0 3 -99z m-8 -183 c24 -34 21 -123 -4 -148 -48
-48 -95 -8 -95 80 0 33 6 64 14 73 20 25 67 21 85 -5z"/>
<path d="M18120 16225 l0 -275 70 0 70 0 0 275 0 275 -70 0 -70 0 0 -275z"/>
<path d="M19632 16401 l4 -99 -29 24 c-43 36 -115 34 -160 -6 -42 -36 -57 -85
-57 -182 0 -59 5 -84 23 -118 43 -82 129 -101 197 -44 l30 26 11 -26 c11 -23
18 -26 66 -26 l53 0 0 275 0 275 -71 0 -71 0 4 -99z m-2 -180 c17 -32 12 -132
-7 -153 -21 -24 -55 -23 -79 3 -22 24 -25 111 -6 147 17 29 76 31 92 3z"/>
<path d="M23910 16225 l0 -275 70 0 70 0 0 275 0 275 -70 0 -70 0 0 -275z"/>
<path d="M24151 16417 c76 -163 76 -366 1 -519 l-29 -58 58 0 c58 0 58 0 83
43 79 136 87 358 20 507 -37 81 -48 90 -110 90 l-53 0 30 -63z"/>
<path d="M22030 16205 l0 -255 124 0 c177 0 244 28 266 112 16 58 -2 114 -46
140 l-35 21 30 18 c40 24 56 81 39 135 -10 31 -23 44 -58 62 -39 20 -59 22
-182 22 l-138 0 0 -255z m221 145 c21 -12 25 -50 7 -68 -7 -7 -29 -12 -50 -12
l-38 0 0 45 c0 44 1 45 31 45 17 0 39 -5 50 -10z m16 -202 c16 -13 17 -60 1
-76 -7 -7 -31 -12 -55 -12 l-43 0 0 56 0 57 42 -7 c23 -4 48 -12 55 -18z"/>
<path d="M5436 16383 c-13 -27 -36 -55 -50 -62 -35 -19 -37 -68 -3 -73 21 -3
22 -8 27 -119 6 -133 18 -162 77 -178 47 -13 51 -13 113 0 l50 11 0 49 0 49
-47 -3 -48 -2 -3 98 -3 97 46 0 45 0 0 50 0 50 -44 0 c-44 0 -45 0 -48 38 -3
36 -4 37 -45 40 -41 3 -43 2 -67 -45z"/>
<path d="M9792 16387 c-11 -24 -34 -54 -51 -66 -40 -29 -44 -71 -6 -71 25 0
25 0 25 -100 0 -132 16 -173 75 -196 32 -12 57 -14 91 -9 72 10 74 12 74 67
l0 49 -35 -7 c-56 -10 -65 4 -65 107 l0 89 50 0 50 0 0 50 0 50 -50 0 -50 0 0
40 0 40 -45 0 c-42 0 -45 -2 -63 -43z"/>
<path d="M4390 16354 c-73 -11 -94 -18 -121 -41 -96 -81 -91 -273 9 -339 47
-32 119 -39 186 -20 l56 17 0 54 c0 30 -1 55 -2 55 -2 0 -21 -7 -43 -15 -57
-20 -83 -18 -110 10 -36 35 -36 115 1 152 26 26 33 26 107 8 23 -6 28 -2 41
30 20 48 20 61 -1 70 -24 9 -104 21 -123 19z"/>
<path d="M4738 16349 c-99 -15 -148 -82 -148 -204 0 -89 26 -139 90 -175 38
-21 57 -25 125 -24 44 1 92 6 108 12 24 10 27 16 27 61 l0 49 -47 -14 c-83
-25 -141 -13 -162 32 l-11 24 127 0 126 0 -5 71 c-10 130 -90 188 -230 168z
m83 -99 c10 -6 19 -20 19 -30 0 -18 -7 -20 -55 -20 -59 0 -70 13 -39 44 18 18
47 20 75 6z"/>
<path d="M6628 16349 c-67 -10 -113 -41 -138 -95 -30 -60 -26 -187 6 -231 53
-71 142 -97 238 -69 l56 17 0 55 c0 50 -2 55 -17 49 -43 -18 -94 -27 -117 -21
-34 8 -48 38 -48 100 1 43 5 55 28 74 27 24 36 24 106 7 22 -6 27 -2 42 34 9
23 16 45 16 50 0 22 -105 40 -172 30z"/>
<path d="M7005 16349 c-59 -6 -115 -23 -115 -34 0 -3 9 -23 20 -44 l19 -39 47
14 c60 18 79 18 98 -2 31 -30 20 -44 -36 -44 -68 0 -121 -15 -155 -44 -36 -31
-44 -116 -14 -163 37 -59 141 -67 202 -16 16 14 31 24 33 22 2 -2 9 -14 15
-26 9 -19 20 -23 56 -23 l45 0 0 156 c0 165 -7 195 -52 223 -30 19 -98 27
-163 20z m85 -244 c0 -46 -52 -79 -88 -56 -21 13 -10 54 18 68 42 21 70 17 70
-12z"/>
<path d="M7925 16350 c-61 -9 -107 -40 -133 -90 -19 -38 -23 -57 -20 -121 2
-62 8 -83 30 -116 35 -53 87 -77 163 -77 119 0 186 63 193 181 5 80 -16 140
-64 183 -19 16 -38 30 -42 30 -4 1 -25 4 -47 8 -22 4 -58 5 -80 2z m79 -122
c18 -25 21 -112 7 -151 -17 -43 -82 -40 -96 4 -11 34 -8 124 5 148 15 29 64
28 84 -1z"/>
<path d="M8945 16349 c-33 -4 -72 -12 -87 -18 l-27 -10 18 -43 c19 -45 21 -46
89 -27 51 14 92 1 92 -29 0 -17 -10 -20 -72 -24 -123 -8 -176 -54 -165 -145
12 -106 137 -146 229 -73 l25 19 11 -24 c10 -22 18 -25 63 -25 l51 0 -4 158
c-2 126 -6 162 -20 180 -38 55 -97 73 -203 61z m85 -246 c0 -51 -60 -84 -90
-48 -26 31 12 74 68 75 17 0 22 -6 22 -27z"/>
<path d="M10215 16350 c-99 -14 -155 -86 -155 -198 0 -89 27 -143 88 -179 39
-23 58 -28 122 -28 41 0 92 6 113 13 36 13 37 15 37 63 0 27 -1 49 -2 49 -2 0
-21 -7 -43 -15 -59 -21 -117 -19 -149 6 -52 41 -37 49 94 49 l120 0 0 57 c0
133 -86 202 -225 183z m89 -112 c9 -12 16 -26 16 -30 0 -5 -27 -8 -60 -8 -64
0 -73 9 -43 42 23 25 68 23 87 -4z"/>
<path d="M11688 16349 c-99 -15 -148 -82 -148 -204 0 -89 26 -139 90 -175 38
-21 57 -25 125 -24 44 1 92 6 108 12 24 10 27 16 27 61 l0 49 -47 -14 c-83
-25 -141 -13 -162 32 l-11 24 127 0 126 0 -5 71 c-10 130 -90 188 -230 168z
m83 -99 c10 -6 19 -20 19 -30 0 -18 -7 -20 -55 -20 -59 0 -70 13 -39 44 18 18
47 20 75 6z"/>
<path d="M12296 16348 c-63 -9 -99 -35 -110 -80 -18 -73 16 -122 114 -163 101
-42 64 -80 -50 -51 -34 9 -64 16 -66 16 -2 0 -4 -25 -4 -55 l0 -54 38 -8 c20
-4 69 -8 108 -7 113 0 164 41 164 131 0 56 -33 94 -115 128 -36 16 -64 33 -62
39 4 12 66 13 113 2 29 -7 31 -6 47 34 l16 41 -27 10 c-46 18 -115 25 -166 17z"/>
<path d="M12705 16350 c-51 -8 -76 -22 -109 -60 -69 -83 -58 -234 22 -302 56
-47 181 -59 265 -26 24 9 27 15 27 59 0 27 -1 49 -2 49 -2 0 -21 -7 -43 -15
-59 -21 -117 -19 -149 6 -52 41 -37 49 94 49 l120 0 0 61 c0 71 -20 121 -61
150 -34 24 -108 37 -164 29z m87 -107 c34 -31 23 -43 -42 -43 -33 0 -60 3 -60
8 0 4 7 18 16 30 18 26 60 29 86 5z"/>
<path d="M13226 16349 c-16 -5 -42 -20 -57 -35 -16 -15 -30 -26 -32 -23 -2 2
-8 16 -15 32 -10 24 -17 27 -62 27 l-50 0 0 -200 0 -200 70 0 70 0 0 114 c0
139 10 158 83 160 51 1 57 9 57 82 0 47 -14 56 -64 43z"/>
<path d="M13515 16354 c-6 -1 -27 -5 -48 -9 -56 -9 -104 -57 -123 -122 -18
-61 -13 -136 11 -183 36 -70 135 -109 238 -95 90 13 97 18 97 74 l0 49 -47
-14 c-72 -22 -120 -18 -148 11 -14 13 -25 29 -25 35 0 6 45 10 126 10 l127 0
-5 65 c-9 106 -53 159 -144 173 -27 5 -54 7 -59 6z m59 -110 c31 -31 20 -44
-39 -44 -48 0 -55 3 -55 20 0 37 65 54 94 24z"/>
<path d="M14002 16349 c-18 -4 -43 -16 -56 -28 -28 -27 -32 -26 -40 4 -6 22
-11 25 -56 25 l-50 0 0 -200 0 -200 65 0 65 0 0 103 c0 125 12 174 47 190 22
10 28 8 44 -12 16 -20 19 -41 19 -152 l0 -129 69 0 69 0 4 136 c3 121 5 137
22 150 25 18 41 18 60 -2 13 -12 16 -41 16 -150 l0 -134 70 0 70 0 0 150 c0
213 -19 250 -131 250 -42 0 -64 -6 -90 -23 -34 -23 -34 -23 -61 -4 -32 24 -92
35 -136 26z"/>
<path d="M14848 16349 c-67 -10 -113 -41 -138 -95 -30 -60 -26 -187 6 -231 53
-71 142 -97 238 -69 l56 17 0 55 c0 50 -2 55 -17 49 -43 -18 -94 -27 -117 -21
-34 8 -48 38 -48 100 1 43 5 55 28 74 27 24 36 24 106 7 22 -6 27 -2 42 34 9
23 16 45 16 50 0 22 -105 40 -172 30z"/>
<path d="M15229 16349 c-26 -4 -56 -12 -67 -18 -66 -35 -104 -142 -83 -234 17
-76 59 -123 127 -143 115 -33 220 17 254 122 15 45 8 140 -14 182 -36 69 -122
105 -217 91z m88 -129 c7 -14 13 -45 13 -70 0 -63 -18 -94 -56 -98 -18 -2 -36
3 -43 11 -21 26 -25 108 -7 150 14 35 19 38 48 35 23 -2 36 -10 45 -28z"/>
<path d="M15755 16348 c-21 -5 -49 -18 -60 -28 l-22 -20 -11 25 c-10 22 -18
25 -62 25 l-50 0 0 -200 0 -200 70 0 70 0 0 124 c0 110 2 126 21 150 23 30 41
33 63 10 13 -12 16 -41 16 -150 l0 -134 70 0 70 0 1 113 c1 135 7 157 43 177
26 14 28 14 47 -9 17 -20 19 -39 19 -152 l0 -129 71 0 71 0 -4 158 c-4 174
-14 210 -65 230 -60 24 -124 18 -163 -14 l-31 -27 -24 23 c-29 28 -87 39 -140
28z"/>
<path d="M16435 16354 c-6 -1 -27 -5 -48 -9 -56 -9 -104 -57 -123 -122 -18
-61 -13 -136 11 -183 36 -70 135 -109 238 -95 90 13 97 18 97 74 l0 49 -47
-14 c-72 -22 -120 -18 -148 11 -14 13 -25 29 -25 35 0 6 45 10 126 10 l127 0
-5 65 c-9 106 -53 159 -144 173 -27 5 -54 7 -59 6z m59 -110 c31 -31 20 -44
-39 -44 -48 0 -55 3 -55 20 0 37 65 54 94 24z"/>
<path d="M16926 16349 c-16 -5 -42 -20 -58 -36 l-28 -27 -12 32 c-12 30 -16
32 -60 32 l-48 0 0 -200 0 -200 65 0 65 0 0 104 c0 131 7 152 58 166 22 5 47
7 56 4 19 -7 23 3 29 73 3 46 2 52 -17 55 -12 3 -34 1 -50 -3z"/>
<path d="M17198 16349 c-67 -10 -113 -41 -138 -95 -30 -60 -26 -187 6 -231 53
-71 142 -97 238 -69 l56 17 0 55 c0 50 -2 55 -17 49 -43 -18 -94 -27 -117 -21
-34 8 -48 38 -48 100 1 43 5 55 28 74 27 24 36 24 106 7 22 -6 27 -2 42 34 9
23 16 45 16 50 0 22 -105 40 -172 30z"/>
<path d="M20005 16350 c-122 -17 -185 -142 -143 -282 26 -87 127 -140 228
-119 103 21 150 81 150 195 0 149 -89 226 -235 206z m86 -121 c6 -12 11 -47
11 -79 0 -76 -13 -100 -56 -100 -25 0 -35 6 -44 25 -17 37 -15 126 4 153 20
29 69 30 85 1z"/>
<path d="M20436 16348 c-63 -9 -99 -35 -110 -80 -18 -73 16 -122 114 -163 101
-42 64 -80 -50 -51 -34 9 -64 16 -66 16 -2 0 -4 -25 -4 -55 l0 -54 38 -8 c20
-4 69 -8 108 -7 113 0 164 41 164 131 0 56 -33 94 -115 128 -36 16 -64 33 -62
39 4 12 66 13 113 2 29 -7 31 -6 47 34 l16 41 -27 10 c-46 18 -115 25 -166 17z"/>
<path d="M21107 16350 c-20 -4 -48 -17 -60 -28 -29 -28 -33 -27 -41 3 -6 22
-11 25 -56 25 l-50 0 0 -200 0 -200 65 0 65 0 0 103 c0 157 26 216 85 189 28
-13 35 -47 35 -183 l0 -109 65 0 65 0 0 155 c0 120 -4 163 -15 185 -25 48 -88
72 -158 60z"/>
<path d="M23406 16348 c-63 -9 -99 -35 -110 -80 -18 -73 16 -122 114 -163 101
-42 64 -80 -50 -51 -34 9 -64 16 -66 16 -2 0 -4 -25 -4 -55 l0 -54 38 -8 c20
-4 69 -8 108 -7 113 0 164 41 164 131 0 56 -33 94 -115 128 -36 16 -64 33 -62
39 4 12 66 13 113 2 29 -7 31 -6 47 34 l16 41 -27 10 c-46 18 -115 25 -166 17z"/>
<path d="M5050 16150 l0 -200 64 0 64 0 3 115 c4 102 7 117 26 136 16 17 34
22 67 22 43 0 46 2 46 26 0 14 3 43 6 64 l7 37 -44 0 c-35 0 -53 -7 -82 -31
l-37 -31 -11 31 c-10 29 -14 31 -60 31 l-49 0 0 -200z"/>
<path d="M5720 16150 l0 -200 70 0 70 0 -2 198 -3 197 -67 3 -68 3 0 -201z"/>
<path d="M6250 16150 l0 -200 70 0 70 0 0 200 0 200 -70 0 -70 0 0 -200z"/>
<path d="M8295 16332 c-47 -29 -58 -49 -57 -99 0 -57 26 -85 114 -128 34 -16
64 -35 66 -42 8 -27 -89 -25 -161 2 -15 6 -17 0 -17 -48 0 -49 3 -55 23 -60
108 -26 208 -14 250 31 34 36 43 88 24 135 -16 37 -31 48 -112 83 -28 12 -52
30 -53 39 -4 16 2 17 45 12 26 -3 58 -9 70 -12 18 -6 24 -1 37 30 21 50 21 50
-23 63 -61 19 -171 15 -206 -6z"/>
<path d="M9260 16150 l0 -200 70 0 70 0 0 125 c0 120 1 127 25 150 30 31 49
32 69 3 13 -18 16 -51 16 -150 l0 -128 70 0 70 0 0 145 c0 160 -9 197 -55 233
-40 32 -129 31 -177 -2 l-36 -24 -11 24 c-9 21 -18 24 -61 24 l-50 0 0 -200z"/>
<path d="M10575 16332 c-47 -29 -58 -49 -57 -99 0 -57 26 -85 114 -128 34 -16
64 -35 66 -42 8 -27 -89 -25 -161 2 -15 6 -17 0 -17 -48 0 -49 3 -55 23 -60
108 -26 208 -14 250 31 34 36 43 88 24 135 -16 37 -31 48 -112 83 -28 12 -52
30 -53 39 -4 16 2 17 45 12 26 -3 58 -9 70 -12 18 -6 24 -1 37 30 21 50 21 50
-23 63 -61 19 -171 15 -206 -6z"/>
<path d="M17440 16150 l0 -200 70 0 70 0 0 200 0 200 -70 0 -70 0 0 -200z"/>
<path d="M17743 16339 c-44 -13 -48 -24 -27 -70 12 -29 22 -38 33 -34 87 34
133 30 139 -12 3 -19 -3 -21 -65 -25 -79 -5 -134 -28 -154 -65 -19 -35 -16
-106 5 -138 39 -60 146 -69 206 -19 l30 26 11 -26 c11 -23 18 -26 61 -26 l48
0 0 145 c0 166 -10 203 -62 235 -26 16 -49 20 -113 19 -44 0 -94 -5 -112 -10z
m147 -236 c0 -54 -67 -86 -90 -43 -14 26 2 57 32 63 52 10 58 8 58 -20z"/>
<path d="M18360 16150 l0 -200 65 0 65 0 0 200 0 200 -65 0 -65 0 0 -200z"/>
<path d="M18570 16295 l0 -54 75 -3 74 -3 -79 -103 c-69 -89 -80 -107 -80
-142 l0 -40 166 0 165 0 -3 53 -3 52 -77 5 -78 5 75 97 c68 88 75 102 75 143
l0 45 -155 0 -155 0 0 -55z"/>
<path d="M19023 16339 c-44 -13 -48 -24 -27 -70 12 -29 22 -38 33 -34 87 34
133 30 139 -12 3 -19 -3 -21 -65 -25 -79 -5 -134 -28 -154 -65 -19 -35 -16
-106 5 -138 39 -60 146 -69 206 -19 l30 26 11 -26 c11 -23 18 -26 61 -26 l48
0 0 145 c0 166 -10 203 -62 235 -26 16 -49 20 -113 19 -44 0 -94 -5 -112 -10z
m147 -236 c0 -54 -67 -86 -90 -43 -14 26 2 57 32 63 52 10 58 8 58 -20z"/>
<path d="M21465 16336 c-138 -60 -139 -301 -1 -373 41 -22 150 -22 191 -1 69
37 99 91 99 183 2 132 -67 205 -194 204 -36 0 -79 -6 -95 -13z m136 -103 c19
-22 19 -144 0 -167 -21 -25 -72 -17 -89 14 -16 31 -11 132 7 154 17 21 65 20
82 -1z"/>
<path d="M22510 16150 l0 -200 64 0 64 0 3 115 c4 102 7 117 26 136 16 17 34
22 67 22 43 0 46 2 46 26 0 14 3 43 6 64 l7 37 -44 0 c-35 0 -53 -7 -82 -31
l-37 -31 -11 31 c-10 29 -14 31 -60 31 l-49 0 0 -200z"/>
<path d="M22913 16339 c-44 -13 -48 -24 -27 -70 12 -29 22 -38 33 -34 87 34
133 30 139 -12 3 -19 -3 -21 -65 -25 -79 -5 -134 -28 -154 -65 -19 -35 -16
-106 5 -138 39 -60 146 -69 206 -19 l30 26 11 -26 c11 -23 18 -26 61 -26 l48
0 0 145 c0 166 -10 203 -62 235 -26 16 -49 20 -113 19 -44 0 -94 -5 -112 -10z
m147 -236 c0 -54 -67 -86 -90 -43 -14 26 2 57 32 63 52 10 58 8 58 -20z"/>
<path d="M23680 16150 l0 -200 70 0 70 0 -2 198 -3 197 -67 3 -68 3 0 -201z"/>
<path d="M8010 14183 c-22 -9 -30 -24 -30 -58 0 -42 16 -55 66 -55 50 0 74 19
74 60 0 46 -56 73 -110 53z"/>
<path d="M9142 14174 c-27 -19 -29 -64 -4 -87 22 -20 95 -23 110 -4 24 30 23
56 -2 82 -29 29 -71 33 -104 9z"/>
<path d="M9612 14174 c-26 -18 -30 -65 -6 -88 18 -18 76 -21 105 -6 28 15 26
74 -3 94 -12 9 -34 16 -48 16 -14 0 -36 -7 -48 -16z"/>
<path d="M13962 14174 c-27 -19 -29 -64 -4 -87 22 -20 95 -23 110 -4 24 30 23
56 -2 82 -29 29 -71 33 -104 9z"/>
<path d="M19919 14169 c-15 -22 -16 -22 -67 -5 -92 31 -146 7 -154 -69 -3 -25
1 -31 21 -33 17 -3 30 4 42 19 l17 23 50 -17 c90 -33 149 -7 155 68 2 26 -2
30 -24 33 -18 2 -30 -4 -40 -19z"/>
<path d="M7774 14171 c-34 -15 -61 -57 -69 -106 -5 -35 -12 -49 -31 -57 -18
-9 -24 -19 -24 -45 0 -29 3 -33 25 -33 l25 0 0 -150 0 -150 70 0 70 0 0 150 0
150 40 0 40 0 0 50 0 50 -41 0 c-36 0 -40 2 -37 23 2 18 9 22 40 22 35 0 39 3
52 42 10 30 11 45 4 49 -18 11 -141 15 -164 5z"/>
<path d="M8660 13905 l0 -275 55 0 c44 0 56 4 65 20 11 20 11 20 41 -2 38 -28
111 -30 151 -4 44 29 68 91 68 177 0 94 -12 138 -48 173 -51 48 -129 52 -175
7 l-22 -20 0 97 0 97 -67 3 -68 3 0 -276z m222 8 c27 -24 26 -135 -2 -163 -11
-11 -24 -20 -30 -20 -5 0 -19 9 -30 20 -16 16 -20 33 -20 84 0 56 3 67 22 80
28 20 37 20 60 -1z"/>
<path d="M9360 13905 l0 -275 65 0 65 0 0 275 0 275 -65 0 -65 0 0 -275z"/>
<path d="M10052 14081 l4 -99 -29 24 c-43 36 -115 34 -160 -6 -42 -36 -57 -85
-57 -182 0 -59 5 -84 23 -118 43 -82 129 -101 197 -44 l30 26 11 -26 c11 -23
18 -26 66 -26 l53 0 0 275 0 275 -71 0 -71 0 4 -99z m-2 -180 c17 -32 12 -132
-7 -153 -21 -24 -55 -23 -79 3 -22 24 -25 111 -6 147 17 29 76 31 92 3z"/>
<path d="M10964 14169 c-3 -6 -3 -52 1 -102 l7 -92 -27 27 c-67 67 -186 23
-214 -79 -14 -49 -14 -137 0 -186 6 -22 25 -55 43 -75 30 -32 39 -36 85 -36
42 0 56 5 79 28 l29 27 17 -26 c14 -21 24 -25 66 -25 l50 0 0 275 0 275 -64 0
c-36 0 -68 -5 -72 -11z m-2 -271 c6 -13 12 -46 12 -75 0 -81 -48 -119 -94 -73
-25 25 -28 114 -4 148 21 30 69 30 86 0z"/>
<path d="M12062 14081 l3 -99 -28 24 c-34 28 -102 33 -146 9 -74 -38 -103
-220 -50 -315 44 -81 131 -101 197 -45 l29 24 13 -24 c12 -22 20 -25 67 -25
l53 0 0 275 0 275 -71 0 -70 0 3 -99z m-8 -183 c24 -34 21 -123 -4 -148 -48
-48 -95 -8 -95 80 0 33 6 64 14 73 20 25 67 21 85 -5z"/>
<path d="M13710 13905 l0 -275 70 0 70 0 -2 273 -3 272 -67 3 -68 3 0 -276z"/>
<path d="M18590 13905 l0 -275 65 0 65 0 0 275 0 275 -65 0 -65 0 0 -275z"/>
<path d="M25600 14079 c0 -98 -1 -101 -17 -80 -22 27 -76 40 -123 30 -89 -19
-135 -162 -95 -295 31 -106 138 -145 211 -77 14 13 27 23 29 21 1 -2 8 -13 14
-25 10 -20 20 -23 67 -23 l54 0 -2 273 -3 272 -67 3 -68 3 0 -102z m-2 -189
c19 -36 10 -129 -13 -146 -48 -35 -87 -6 -93 69 -6 74 14 110 61 105 22 -2 36
-11 45 -28z"/>
<path d="M1875 14138 c-2 -7 -39 -118 -81 -247 -41 -129 -78 -240 -81 -248 -4
-11 9 -13 72 -11 l78 3 14 48 14 48 82 -3 81 -3 14 -47 13 -48 75 0 c67 0 75
2 70 18 -3 9 -41 125 -84 257 l-78 240 -92 3 c-68 2 -94 -1 -97 -10z m102
-296 c-27 -2 -51 -1 -54 1 -4 4 31 154 44 187 3 8 17 -30 32 -85 l27 -100 -49
-3z"/>
<path d="M4461 14066 c-11 -24 -33 -53 -50 -65 -40 -29 -44 -71 -6 -71 l25 0
0 -105 c0 -112 14 -166 47 -183 35 -19 93 -24 143 -12 l50 12 0 50 0 50 -30
-7 c-63 -14 -70 -4 -70 101 l0 94 51 0 50 0 -3 48 -3 47 -47 3 -48 3 0 40 0
39 -45 0 c-44 0 -46 -1 -64 -44z"/>
<path d="M15152 14067 c-11 -24 -34 -54 -51 -66 -40 -29 -44 -71 -6 -71 25 0
25 0 25 -100 0 -132 16 -173 75 -196 32 -12 57 -14 91 -9 72 10 74 12 74 67
l0 49 -35 -7 c-56 -10 -65 4 -65 107 l0 89 50 0 50 0 0 50 0 50 -50 0 -50 0 0
40 0 40 -45 0 c-42 0 -45 -2 -63 -43z"/>
<path d="M26362 14067 c-11 -24 -34 -54 -51 -66 -40 -29 -44 -71 -6 -71 25 0
25 0 25 -100 0 -132 16 -173 75 -196 32 -12 57 -14 91 -9 72 10 74 12 74 67
l0 49 -35 -7 c-56 -10 -65 4 -65 107 l0 89 50 0 50 0 0 50 0 50 -50 0 -50 0 0
40 0 40 -45 0 c-42 0 -45 -2 -63 -43z"/>
<path d="M2975 14030 c-38 -8 -75 -28 -75 -40 0 -21 -20 -9 -26 15 -6 23 -11
25 -60 25 l-54 0 0 -200 0 -200 70 0 70 0 0 114 c0 129 8 161 45 178 21 10 29
9 43 -6 14 -14 18 -41 20 -151 l4 -135 63 0 63 0 4 123 c2 67 9 132 16 144 17
31 49 39 73 17 17 -15 19 -31 19 -151 l0 -133 70 0 70 0 0 143 c0 170 -9 211
-53 237 -48 30 -137 27 -174 -4 l-27 -24 -27 20 c-32 24 -93 37 -134 28z"/>
<path d="M3618 14029 c-99 -15 -148 -82 -148 -204 0 -89 26 -139 90 -175 38
-21 57 -25 125 -24 44 1 92 6 108 12 24 10 27 16 27 61 l0 49 -47 -14 c-83
-25 -141 -13 -162 32 l-11 24 127 0 126 0 -5 71 c-10 130 -90 188 -230 168z
m83 -99 c10 -6 19 -20 19 -30 0 -18 -7 -20 -55 -20 -59 0 -70 13 -39 44 18 18
47 20 75 6z"/>
<path d="M4135 14028 c-21 -5 -49 -18 -62 -30 l-22 -21 -10 27 c-9 23 -16 26
-61 26 l-50 0 0 -200 0 -200 63 0 64 0 6 124 c6 137 14 162 54 172 20 5 31 2
45 -16 15 -19 18 -41 18 -151 l0 -129 70 0 70 0 0 131 c0 147 -11 207 -45 239
-29 28 -87 39 -140 28z"/>
<path d="M4875 14029 c-33 -4 -72 -12 -87 -18 l-27 -10 18 -43 c19 -45 21 -46
89 -27 51 14 92 1 92 -29 0 -17 -10 -20 -72 -24 -123 -8 -176 -54 -165 -145
12 -106 137 -146 229 -73 l25 19 11 -24 c10 -22 18 -25 63 -25 l51 0 -4 158
c-2 126 -6 162 -20 180 -38 55 -97 73 -203 61z m85 -246 c0 -51 -60 -84 -90
-48 -26 31 12 74 68 75 17 0 22 -6 22 -27z"/>
<path d="M5394 14024 c-21 -7 -46 -22 -56 -34 -21 -26 -24 -26 -37 10 -9 28
-13 30 -60 30 l-51 0 0 -200 0 -200 70 0 70 0 0 118 c0 139 9 155 84 155 l44
0 6 45 c12 89 1 100 -70 76z"/>
<path d="M6500 14030 c-90 -12 -140 -57 -160 -146 -23 -99 14 -200 85 -237 51
-27 155 -28 203 -4 30 16 32 21 32 68 0 45 -2 50 -17 44 -66 -25 -105 -29
-131 -15 -35 20 -49 77 -33 132 16 50 46 66 100 50 54 -17 55 -16 70 26 8 20
16 42 18 48 8 23 -94 43 -167 34z"/>
<path d="M7405 14028 c-21 -5 -49 -18 -62 -30 l-22 -21 -10 27 c-9 23 -16 26
-61 26 l-50 0 0 -200 0 -200 63 0 64 0 6 124 c6 137 14 162 54 172 20 5 31 2
45 -16 15 -19 18 -41 18 -151 l0 -129 70 0 70 0 0 131 c0 147 -11 207 -45 239
-29 28 -87 39 -140 28z"/>
<path d="M8345 14029 c-59 -6 -115 -23 -115 -34 0 -3 9 -23 20 -44 l19 -39 47
14 c60 18 79 18 98 -2 31 -30 20 -44 -36 -44 -68 0 -121 -15 -155 -44 -36 -31
-44 -116 -14 -163 37 -59 141 -67 202 -16 16 14 31 24 33 22 2 -2 9 -14 15
-26 9 -19 20 -23 56 -23 l45 0 0 156 c0 165 -7 195 -52 223 -30 19 -98 27
-163 20z m85 -244 c0 -46 -52 -79 -88 -56 -21 13 -10 54 18 68 42 21 70 17 70
-12z"/>
<path d="M11335 14030 c-51 -8 -76 -22 -109 -60 -69 -83 -58 -234 22 -302 56
-47 181 -59 265 -26 24 9 27 15 27 59 0 27 -1 49 -2 49 -2 0 -21 -7 -43 -15
-59 -21 -117 -19 -149 6 -52 41 -37 49 94 49 l120 0 0 61 c0 71 -20 121 -61
150 -34 24 -108 37 -164 29z m87 -107 c34 -31 23 -43 -42 -43 -33 0 -60 3 -60
8 0 4 7 18 16 30 18 26 60 29 86 5z"/>
<path d="M12435 14030 c-61 -9 -107 -40 -133 -90 -19 -38 -23 -57 -20 -121 2
-62 8 -83 30 -116 35 -53 87 -77 163 -77 119 0 186 63 193 181 5 80 -16 140
-64 183 -19 16 -38 30 -42 30 -4 1 -25 4 -47 8 -22 4 -58 5 -80 2z m79 -122
c18 -25 21 -112 7 -151 -17 -43 -82 -40 -96 4 -11 34 -8 124 5 148 15 29 64
28 84 -1z"/>
<path d="M13468 14029 c-67 -10 -113 -41 -138 -95 -30 -60 -26 -187 6 -231 53
-71 142 -97 238 -69 l56 17 0 55 c0 50 -2 55 -17 49 -43 -18 -94 -27 -117 -21
-34 8 -48 38 -48 100 1 43 5 55 28 74 27 24 36 24 106 7 22 -6 27 -2 42 34 9
23 16 45 16 50 0 22 -105 40 -172 30z"/>
<path d="M14315 14030 c-51 -8 -76 -22 -109 -60 -69 -83 -58 -234 22 -302 56
-47 181 -59 265 -26 24 9 27 15 27 59 0 27 -1 49 -2 49 -2 0 -21 -7 -43 -15
-59 -21 -117 -19 -149 6 -52 41 -37 49 94 49 l120 0 0 61 c0 71 -20 121 -61
150 -34 24 -108 37 -164 29z m87 -107 c34 -31 23 -43 -42 -43 -33 0 -60 3 -60
8 0 4 7 18 16 30 18 26 60 29 86 5z"/>
<path d="M15575 14030 c-99 -14 -155 -86 -155 -198 0 -89 27 -143 88 -179 39
-23 58 -28 122 -28 41 0 92 6 113 13 36 13 37 15 37 63 0 27 -1 49 -2 49 -2 0
-21 -7 -43 -15 -59 -21 -117 -19 -149 6 -52 41 -37 49 94 49 l120 0 0 57 c0
133 -86 202 -225 183z m89 -112 c9 -12 16 -26 16 -30 0 -5 -27 -8 -60 -8 -64
0 -73 9 -43 42 23 25 68 23 87 -4z"/>
<path d="M16615 14034 c-6 -1 -27 -5 -48 -9 -56 -9 -104 -57 -123 -122 -18
-61 -13 -136 11 -183 36 -70 135 -109 238 -95 90 13 97 18 97 74 l0 49 -47
-14 c-72 -22 -120 -18 -148 11 -14 13 -25 29 -25 35 0 6 45 10 126 10 l127 0
-5 65 c-9 106 -53 159 -144 173 -27 5 -54 7 -59 6z m59 -110 c31 -31 20 -44
-39 -44 -48 0 -55 3 -55 20 0 37 65 54 94 24z"/>
<path d="M17102 14029 c-18 -4 -43 -16 -56 -28 -28 -27 -32 -26 -40 4 -6 22
-11 25 -56 25 l-50 0 0 -200 0 -200 65 0 65 0 0 103 c0 125 12 174 47 190 22
10 28 8 44 -12 16 -20 19 -41 19 -152 l0 -129 69 0 69 0 4 136 c3 121 5 137
22 150 25 18 41 18 60 -2 13 -12 16 -41 16 -150 l0 -134 70 0 70 0 0 150 c0
213 -19 250 -131 250 -42 0 -64 -6 -90 -23 -34 -23 -34 -23 -61 -4 -32 24 -92
35 -136 26z"/>
<path d="M18016 14029 c-16 -5 -42 -20 -57 -35 -16 -15 -30 -26 -32 -23 -2 2
-8 16 -15 32 -10 24 -17 27 -62 27 l-50 0 0 -200 0 -200 70 0 70 0 0 114 c0
139 10 158 83 160 51 1 57 9 57 82 0 47 -14 56 -64 43z"/>
<path d="M18305 14034 c-6 -1 -27 -5 -48 -9 -56 -9 -104 -57 -123 -122 -18
-61 -13 -136 11 -183 36 -70 135 -109 238 -95 90 13 97 18 97 74 l0 49 -47
-14 c-72 -22 -120 -18 -148 11 -14 13 -25 29 -25 35 0 6 45 10 126 10 l127 0
-5 65 c-9 106 -53 159 -144 173 -27 5 -54 7 -59 6z m59 -110 c31 -31 20 -44
-39 -44 -48 0 -55 3 -55 20 0 37 65 54 94 24z"/>
<path d="M19407 14029 c-55 -9 -109 -45 -134 -92 -13 -23 -18 -55 -18 -113 0
-71 3 -85 27 -121 16 -25 43 -48 67 -59 35 -15 39 -20 29 -38 -8 -15 -8 -21 1
-24 20 -7 41 -33 35 -44 -4 -5 -19 -8 -35 -6 -28 4 -29 3 -29 -34 l0 -38 58 0
c63 0 96 20 107 63 8 28 -10 76 -30 83 -20 8 -9 24 16 24 11 0 33 7 49 15 27
14 30 20 30 65 0 28 -3 50 -7 50 -5 0 -26 -7 -48 -15 -58 -21 -83 -18 -112 11
-23 23 -25 31 -21 81 7 87 40 105 135 77 20 -5 25 0 43 41 11 26 20 48 20 50
0 16 -123 32 -183 24z"/>
<path d="M20245 14030 c-61 -9 -107 -40 -133 -90 -19 -38 -23 -57 -20 -121 2
-62 8 -83 30 -116 35 -53 87 -77 163 -77 119 0 186 63 193 181 5 80 -16 140
-64 183 -19 16 -38 30 -42 30 -4 1 -25 4 -47 8 -22 4 -58 5 -80 2z m79 -122
c18 -25 21 -112 7 -151 -17 -43 -82 -40 -96 4 -11 34 -8 124 5 148 15 29 64
28 84 -1z"/>
<path d="M21766 14028 c-63 -9 -99 -35 -110 -80 -18 -73 16 -122 114 -163 101
-42 64 -80 -50 -51 -34 9 -64 16 -66 16 -2 0 -4 -25 -4 -55 l0 -54 38 -8 c20
-4 69 -8 108 -7 113 0 164 41 164 131 0 56 -33 94 -115 128 -36 16 -64 33 -62
39 4 12 66 13 113 2 29 -7 31 -6 47 34 l16 41 -27 10 c-46 18 -115 25 -166 17z"/>
<path d="M22339 14029 c-63 -9 -97 -34 -110 -80 -10 -30 -9 -46 2 -76 12 -33
24 -43 89 -75 137 -68 89 -100 -77 -52 -22 6 -23 3 -23 -45 0 -47 3 -53 28
-63 15 -6 63 -12 107 -12 126 0 175 36 175 129 -1 65 -15 83 -103 125 -39 19
-72 40 -72 45 0 16 44 18 92 5 24 -7 46 -11 48 -8 2 2 11 21 20 41 14 34 14
37 -4 46 -30 17 -123 27 -172 20z"/>
<path d="M22775 14034 c-6 -1 -27 -5 -48 -9 -56 -9 -104 -57 -123 -122 -18
-61 -13 -136 11 -183 36 -70 135 -109 238 -95 90 13 97 18 97 74 l0 49 -47
-14 c-72 -22 -120 -18 -148 11 -14 13 -25 29 -25 35 0 6 45 10 126 10 l127 0
-5 65 c-9 106 -53 159 -144 173 -27 5 -54 7 -59 6z m59 -110 c31 -31 20 -44
-39 -44 -48 0 -55 3 -55 20 0 37 65 54 94 24z"/>
<path d="M23649 14029 c-63 -9 -97 -34 -110 -80 -10 -30 -9 -46 2 -76 12 -33
24 -43 89 -75 137 -68 89 -100 -77 -52 -22 6 -23 3 -23 -45 0 -47 3 -53 28
-63 15 -6 63 -12 107 -12 126 0 175 36 175 129 -1 65 -15 83 -103 125 -39 19
-72 40 -72 45 0 16 44 18 92 5 24 -7 46 -11 48 -8 2 2 11 21 20 41 14 34 14
37 -4 46 -30 17 -123 27 -172 20z"/>
<path d="M24786 14029 c-16 -5 -42 -20 -57 -35 -16 -15 -30 -26 -32 -23 -2 2
-8 16 -15 32 -10 24 -17 27 -62 27 l-50 0 0 -200 0 -200 70 0 70 0 0 114 c0
139 10 158 83 160 51 1 57 9 57 82 0 47 -14 56 -64 43z"/>
<path d="M25049 14029 c-26 -4 -56 -12 -67 -18 -66 -35 -104 -142 -83 -234 17
-76 59 -123 127 -143 115 -33 220 17 254 122 15 45 8 140 -14 182 -36 69 -122
105 -217 91z m88 -129 c7 -14 13 -45 13 -70 0 -63 -18 -94 -56 -98 -18 -2 -36
3 -43 11 -21 26 -25 108 -7 150 14 35 19 38 48 35 23 -2 36 -10 45 -28z"/>
<path d="M26785 14030 c-122 -17 -185 -142 -143 -282 26 -87 127 -140 228
-119 103 21 150 81 150 195 0 149 -89 226 -235 206z m86 -121 c6 -12 11 -47
11 -79 0 -76 -13 -100 -56 -100 -25 0 -35 6 -44 25 -17 37 -15 126 4 153 20
29 69 30 85 1z"/>
<path d="M27808 14029 c-99 -15 -148 -82 -148 -204 0 -89 26 -139 90 -175 38
-21 57 -25 125 -24 44 1 92 6 108 12 24 10 27 16 27 61 l0 49 -47 -14 c-83
-25 -141 -13 -162 32 l-11 24 127 0 126 0 -5 71 c-10 130 -90 188 -230 168z
m83 -99 c10 -6 19 -20 19 -30 0 -18 -7 -20 -55 -20 -59 0 -70 13 -39 44 18 18
47 20 75 6z"/>
<path d="M2280 13879 c0 -200 18 -239 118 -255 42 -7 132 24 132 45 0 21 20
10 26 -14 6 -23 11 -25 60 -25 l54 0 0 200 0 200 -69 0 -69 0 -4 -129 c-3
-110 -6 -132 -22 -150 -23 -25 -49 -27 -70 -5 -13 12 -16 41 -16 150 l0 134
-70 0 -70 0 0 -151z"/>
<path d="M5783 14019 c-44 -13 -48 -24 -27 -70 12 -29 22 -38 33 -34 87 34
133 30 139 -12 3 -19 -3 -21 -65 -25 -79 -5 -134 -28 -154 -65 -19 -35 -16
-106 5 -138 39 -60 146 -69 206 -19 l30 26 11 -26 c11 -23 18 -26 61 -26 l48
0 0 145 c0 166 -10 203 -62 235 -26 16 -49 20 -113 19 -44 0 -94 -5 -112 -10z
m147 -236 c0 -54 -67 -86 -90 -43 -14 26 2 57 32 63 52 10 58 8 58 -20z"/>
<path d="M6825 14016 c-138 -60 -139 -301 -1 -373 41 -22 150 -22 191 -1 69
37 99 91 99 183 2 132 -67 205 -194 204 -36 0 -79 -6 -95 -13z m136 -103 c19
-22 19 -144 0 -167 -21 -25 -72 -17 -89 14 -16 31 -11 132 7 154 17 21 65 20
82 -1z"/>
<path d="M7980 13830 l0 -200 70 0 70 0 -2 198 -3 197 -67 3 -68 3 0 -201z"/>
<path d="M9120 13830 l0 -200 70 0 70 0 0 200 0 200 -70 0 -70 0 0 -200z"/>
<path d="M9590 13830 l0 -200 70 0 70 0 0 200 0 200 -70 0 -70 0 0 -200z"/>
<path d="M10353 14019 c-44 -13 -48 -24 -27 -70 12 -29 22 -38 33 -34 87 34
133 30 139 -12 3 -19 -3 -21 -65 -25 -79 -5 -134 -28 -154 -65 -19 -35 -16
-106 5 -138 39 -60 146 -69 206 -19 l30 26 11 -26 c11 -23 18 -26 61 -26 l48
0 0 145 c0 166 -10 203 -62 235 -26 16 -49 20 -113 19 -44 0 -94 -5 -112 -10z
m147 -236 c0 -54 -67 -86 -90 -43 -14 26 2 57 32 63 52 10 58 8 58 -20z"/>
<path d="M12805 14012 c-47 -29 -58 -49 -57 -99 0 -57 26 -85 114 -128 34 -16
64 -35 66 -42 8 -27 -89 -25 -161 2 -15 6 -17 0 -17 -48 0 -49 3 -55 23 -60
108 -26 208 -14 250 31 34 36 43 88 24 135 -16 37 -31 48 -112 83 -28 12 -52
30 -53 39 -4 16 2 17 45 12 26 -3 58 -9 70 -12 18 -6 24 -1 37 30 21 50 21 50
-23 63 -61 19 -171 15 -206 -6z"/>
<path d="M13940 13830 l0 -200 70 0 70 0 0 200 0 200 -70 0 -70 0 0 -200z"/>
<path d="M14620 13830 l0 -200 69 0 69 0 4 131 c3 123 4 132 27 150 28 23 45
24 65 3 13 -12 16 -41 16 -150 l0 -134 70 0 70 0 0 151 c0 168 -9 202 -59 232
-52 30 -191 13 -191 -23 0 -21 -20 -9 -26 15 -6 23 -11 25 -60 25 l-54 0 0
-200z"/>
<path d="M15935 14012 c-47 -29 -58 -49 -57 -99 0 -57 26 -85 114 -128 34 -16
64 -35 66 -42 8 -27 -89 -25 -161 2 -15 6 -17 0 -17 -48 0 -49 3 -55 23 -60
108 -26 208 -14 250 31 34 36 43 88 24 135 -16 37 -31 48 -112 83 -28 12 -52
30 -53 39 -4 16 2 17 45 12 26 -3 58 -9 70 -12 18 -6 24 -1 37 30 21 50 21 50
-23 63 -61 19 -171 15 -206 -6z"/>
<path d="M18883 14019 c-43 -12 -45 -19 -26 -68 12 -31 20 -40 32 -36 9 4 37
11 63 17 52 12 78 1 78 -33 0 -16 -8 -19 -47 -19 -68 0 -122 -18 -155 -50 -23
-23 -28 -37 -28 -77 0 -63 17 -94 63 -117 49 -23 115 -15 157 20 l30 26 11
-26 c11 -23 18 -26 61 -26 l48 0 0 153 c0 168 -5 188 -59 224 -29 20 -46 23
-115 22 -45 0 -95 -5 -113 -10z m150 -244 c-3 -35 -28 -57 -63 -53 -36 4 -36
57 0 75 41 21 65 13 63 -22z"/>
<path d="M19723 14019 c-44 -13 -48 -24 -27 -70 12 -29 22 -38 33 -34 87 34
133 30 139 -12 3 -19 -3 -21 -65 -25 -79 -5 -134 -28 -154 -65 -19 -35 -16
-106 5 -138 39 -60 146 -69 206 -19 l30 26 11 -26 c11 -23 18 -26 61 -26 l48
0 0 145 c0 166 -10 203 -62 235 -26 16 -49 20 -113 19 -44 0 -94 -5 -112 -10z
m147 -236 c0 -54 -67 -86 -90 -43 -14 26 2 57 32 63 52 10 58 8 58 -20z"/>
<path d="M20813 14019 c-43 -12 -45 -19 -26 -68 12 -31 20 -40 32 -36 9 4 37
11 63 17 52 12 78 1 78 -33 0 -16 -8 -19 -47 -19 -68 0 -122 -18 -155 -50 -23
-23 -28 -37 -28 -77 0 -63 17 -94 63 -117 49 -23 115 -15 157 20 l30 26 11
-26 c11 -23 18 -26 61 -26 l48 0 0 153 c0 168 -5 188 -59 224 -29 20 -46 23
-115 22 -45 0 -95 -5 -113 -10z m150 -244 c-3 -35 -28 -57 -63 -53 -36 4 -36
57 0 75 41 21 65 13 63 -22z"/>
<path d="M21285 14016 c-138 -60 -139 -301 -1 -373 41 -22 150 -22 191 -1 69
37 99 91 99 183 2 132 -67 205 -194 204 -36 0 -79 -6 -95 -13z m136 -103 c19
-22 19 -144 0 -167 -21 -25 -72 -17 -89 14 -16 31 -11 132 7 154 17 21 65 20
82 -1z"/>
<path d="M23057 14023 c-10 -9 -8 -239 2 -291 10 -53 43 -89 93 -103 50 -13
102 -3 139 28 l29 25 10 -26 c8 -23 15 -26 60 -26 l50 0 0 200 0 201 -67 -3
-68 -3 -5 -133 c-4 -117 -7 -135 -24 -148 -28 -20 -53 -17 -70 8 -13 18 -16
51 -16 150 l0 128 -63 0 c-35 0 -67 -3 -70 -7z"/>
<path d="M24110 13745 l0 -285 65 0 65 0 0 105 0 106 31 -23 c40 -30 107 -31
146 -2 46 34 66 79 71 158 5 91 -11 151 -53 193 -29 29 -40 33 -83 33 -40 0
-57 -6 -81 -26 l-31 -26 -11 26 c-11 23 -18 26 -66 26 l-53 0 0 -285z m224
163 c24 -34 21 -133 -4 -158 -25 -25 -32 -25 -60 -2 -18 15 -22 28 -23 80 0
46 4 67 18 82 24 26 50 25 69 -2z"/>
<path d="M25830 13879 c0 -200 18 -239 118 -255 42 -7 132 24 132 45 0 21 20
10 26 -14 6 -23 11 -25 60 -25 l54 0 0 200 0 200 -69 0 -69 0 -4 -129 c-3
-110 -6 -132 -22 -150 -23 -25 -49 -27 -70 -5 -13 12 -16 41 -16 150 l0 134
-70 0 -70 0 0 -151z"/>
<path d="M27153 14010 c-40 -24 -53 -48 -53 -99 0 -54 33 -91 114 -125 131
-56 57 -86 -96 -40 -16 5 -18 -2 -18 -50 l0 -55 38 -8 c20 -4 66 -8 102 -8
118 1 177 52 167 142 -6 57 -32 84 -113 118 -35 15 -64 33 -64 41 0 19 60 18
104 0 33 -14 33 -14 50 20 9 19 16 41 16 48 0 37 -192 50 -247 16z"/>
<path d="M1137 13988 c-123 -67 -251 -211 -323 -361 -20 -43 -38 -77 -41 -77
-2 0 -48 34 -102 75 -62 48 -104 73 -113 70 -24 -9 -50 -67 -46 -100 3 -27 13
-35 103 -80 55 -28 124 -67 153 -88 47 -35 53 -37 58 -20 41 117 93 233 135
301 55 90 156 199 232 250 85 57 39 82 -56 30z"/>
<path d="M9392 13081 l4 -99 -29 24 c-43 36 -115 34 -160 -6 -42 -36 -57 -85
-57 -182 0 -59 5 -84 23 -118 43 -82 129 -101 197 -44 l30 26 11 -26 c11 -23
18 -26 66 -26 l53 0 0 275 0 275 -71 0 -71 0 4 -99z m-2 -180 c17 -32 12 -132
-7 -153 -21 -24 -55 -23 -79 3 -22 24 -25 111 -6 147 17 29 76 31 92 3z"/>
<path d="M11664 13169 c-3 -6 -3 -52 1 -102 l7 -92 -27 27 c-67 67 -186 23
-214 -79 -14 -49 -14 -137 0 -186 6 -22 25 -55 43 -75 30 -32 39 -36 85 -36
42 0 56 5 79 28 l29 27 17 -26 c14 -21 24 -25 66 -25 l50 0 0 275 0 275 -64 0
c-36 0 -68 -5 -72 -11z m-2 -271 c6 -13 12 -46 12 -75 0 -81 -48 -119 -94 -73
-25 25 -28 114 -4 148 21 30 69 30 86 0z"/>
<path d="M14210 12905 l0 -275 70 0 70 0 -2 273 -3 272 -67 3 -68 3 0 -276z"/>
<path d="M9765 13030 c-99 -14 -155 -86 -155 -198 0 -89 27 -143 88 -179 39
-23 58 -28 122 -28 41 0 92 6 113 13 36 13 37 15 37 63 0 27 -1 49 -2 49 -2 0
-21 -7 -43 -15 -59 -21 -117 -19 -149 6 -52 41 -37 49 94 49 l120 0 0 57 c0
133 -86 202 -225 183z m89 -112 c9 -12 16 -26 16 -30 0 -5 -27 -8 -60 -8 -64
0 -73 9 -43 42 23 25 68 23 87 -4z"/>
<path d="M10467 13029 c-20 -3 -48 -16 -62 -29 l-24 -23 -10 27 c-9 23 -16 26
-61 26 l-50 0 0 -200 0 -200 65 0 65 0 1 83 c1 119 12 187 34 203 24 18 40 18
59 -2 13 -12 16 -41 16 -150 l0 -134 70 0 70 0 0 124 c0 117 1 127 24 153 21
24 27 26 48 16 32 -14 38 -45 38 -184 l0 -109 66 0 65 0 -3 170 c-3 168 -3
170 -29 196 -46 46 -141 49 -199 6 l-27 -20 -20 20 c-25 24 -84 36 -136 27z"/>
<path d="M12654 13028 c-59 -9 -95 -34 -113 -81 -17 -46 -8 -97 24 -135 24
-29 24 -29 5 -47 -24 -21 -26 -67 -5 -85 18 -15 19 -30 2 -30 -20 0 -56 -37
-63 -65 -3 -14 0 -39 7 -56 18 -46 75 -69 170 -69 95 0 159 21 199 66 40 46
43 118 6 160 -21 25 -31 28 -122 35 -117 9 -104 6 -104 24 0 11 11 15 41 15
62 0 117 20 145 53 19 22 24 40 24 82 0 48 2 53 25 59 21 5 25 12 25 41 l0 34
-109 3 c-61 2 -131 0 -157 -4z m75 -82 c7 -8 11 -34 9 -58 -3 -37 -6 -43 -27
-46 -15 -3 -30 3 -38 14 -38 52 16 138 56 90z m30 -332 c25 -5 31 -11 29 -28
-7 -51 -159 -59 -166 -8 -5 35 57 52 137 36z"/>
<path d="M13145 13034 c-6 -1 -27 -5 -48 -9 -56 -9 -104 -57 -123 -122 -18
-61 -13 -136 11 -183 36 -70 135 -109 238 -95 90 13 97 18 97 74 l0 49 -47
-14 c-72 -22 -120 -18 -148 11 -14 13 -25 29 -25 35 0 6 45 10 126 10 l127 0
-5 65 c-9 106 -53 159 -144 173 -27 5 -54 7 -59 6z m59 -110 c31 -31 20 -44
-39 -44 -48 0 -55 3 -55 20 0 37 65 54 94 24z"/>
<path d="M13636 13029 c-16 -5 -42 -20 -58 -36 l-28 -27 -12 32 c-12 30 -16
32 -60 32 l-48 0 0 -200 0 -200 65 0 65 0 0 104 c0 131 7 152 58 166 22 5 47
7 56 4 19 -7 23 3 29 73 3 46 2 52 -17 55 -12 3 -34 1 -50 -3z"/>
<path d="M13895 13029 c-33 -4 -72 -12 -87 -18 l-27 -10 18 -43 c19 -45 21
-46 89 -27 51 14 92 1 92 -29 0 -17 -10 -20 -72 -24 -123 -8 -176 -54 -165
-145 12 -106 137 -146 229 -73 l25 19 11 -24 c10 -22 18 -25 63 -25 l51 0 -4
158 c-2 126 -6 162 -20 180 -38 55 -97 73 -203 61z m85 -246 c0 -51 -60 -84
-90 -48 -26 31 12 74 68 75 17 0 22 -6 22 -27z"/>
<path d="M17608 13029 c-99 -15 -148 -82 -148 -204 0 -89 26 -139 90 -175 38
-21 57 -25 125 -24 44 1 92 6 108 12 24 10 27 16 27 61 l0 49 -47 -14 c-83
-25 -141 -13 -162 32 l-11 24 127 0 126 0 -5 71 c-10 130 -90 188 -230 168z
m83 -99 c10 -6 19 -20 19 -30 0 -18 -7 -20 -55 -20 -59 0 -70 13 -39 44 18 18
47 20 75 6z"/>
<path d="M18127 13029 c-20 -3 -48 -16 -62 -29 l-24 -23 -10 27 c-9 23 -16 26
-61 26 l-50 0 0 -200 0 -200 65 0 65 0 1 83 c1 119 12 187 34 203 24 18 40 18
59 -2 13 -12 16 -41 16 -150 l0 -134 70 0 70 0 0 124 c0 117 1 127 24 153 21
24 27 26 48 16 32 -14 38 -45 38 -184 l0 -109 66 0 65 0 -3 170 c-3 168 -3
170 -29 196 -46 46 -141 49 -199 6 l-27 -20 -20 20 c-25 24 -84 36 -136 27z"/>
<path d="M19304 13024 c-21 -7 -46 -22 -56 -34 -21 -26 -24 -26 -37 10 -9 28
-13 30 -60 30 l-51 0 0 -200 0 -200 70 0 70 0 0 118 c0 139 9 155 84 155 l44
0 6 45 c12 89 1 100 -70 76z"/>
<path d="M19575 13030 c-51 -8 -76 -22 -109 -60 -69 -83 -58 -234 22 -302 56
-47 181 -59 265 -26 24 9 27 15 27 59 0 27 -1 49 -2 49 -2 0 -21 -7 -43 -15
-59 -21 -117 -19 -149 6 -52 41 -37 49 94 49 l120 0 0 61 c0 71 -20 121 -61
150 -34 24 -108 37 -164 29z m87 -107 c34 -31 23 -43 -42 -43 -33 0 -60 3 -60
8 0 4 7 18 16 30 18 26 60 29 86 5z"/>
<path d="M11065 13016 c-138 -60 -139 -301 -1 -373 41 -22 150 -22 191 -1 69
37 99 91 99 183 2 132 -67 205 -194 204 -36 0 -79 -6 -95 -13z m136 -103 c19
-22 19 -144 0 -167 -21 -25 -72 -17 -89 14 -16 31 -11 132 7 154 17 21 65 20
82 -1z"/>
<path d="M11985 13016 c-138 -60 -139 -301 -1 -373 41 -22 150 -22 191 -1 69
37 99 91 99 183 2 132 -67 205 -194 204 -36 0 -79 -6 -95 -13z m136 -103 c19
-22 19 -144 0 -167 -21 -25 -72 -17 -89 14 -16 31 -11 132 7 154 17 21 65 20
82 -1z"/>
<path d="M14850 12830 l0 -200 69 0 69 0 4 131 c3 123 4 132 27 150 28 23 45
24 65 3 13 -12 16 -41 16 -150 l0 -134 70 0 70 0 0 151 c0 168 -9 202 -59 232
-52 30 -191 13 -191 -23 0 -21 -20 -9 -26 15 -6 23 -11 25 -60 25 l-54 0 0
-200z"/>
<path d="M15403 13019 c-44 -13 -48 -24 -27 -70 12 -29 22 -38 33 -34 87 34
133 30 139 -12 3 -19 -3 -21 -65 -25 -79 -5 -134 -28 -154 -65 -19 -35 -16
-106 5 -138 39 -60 146 -69 206 -19 l30 26 11 -26 c11 -23 18 -26 61 -26 l48
0 0 145 c0 166 -10 203 -62 235 -26 16 -49 20 -113 19 -44 0 -94 -5 -112 -10z
m147 -236 c0 -54 -67 -86 -90 -43 -14 26 2 57 32 63 52 10 58 8 58 -20z"/>
<path d="M16025 13012 c-47 -29 -58 -49 -57 -99 0 -57 26 -85 114 -128 34 -16
64 -35 66 -42 8 -27 -89 -25 -161 2 -15 6 -17 0 -17 -48 0 -49 3 -55 23 -60
108 -26 208 -14 250 31 34 36 43 88 24 135 -16 37 -31 48 -112 83 -28 12 -52
30 -53 39 -4 16 2 17 45 12 26 -3 58 -9 70 -12 18 -6 24 -1 37 30 21 50 21 50
-23 63 -61 19 -171 15 -206 -6z"/>
<path d="M16357 13023 c-10 -9 -8 -239 2 -291 10 -53 43 -89 93 -103 50 -13
102 -3 139 28 l29 25 10 -26 c8 -23 15 -26 60 -26 l50 0 0 200 0 201 -67 -3
-68 -3 -5 -133 c-4 -117 -7 -135 -24 -148 -28 -20 -53 -17 -70 8 -13 18 -16
51 -16 150 l0 128 -63 0 c-35 0 -67 -3 -70 -7z"/>
<path d="M16903 13019 c-43 -12 -45 -19 -26 -68 12 -31 20 -40 32 -36 9 4 37
11 63 17 52 12 78 1 78 -33 0 -16 -8 -19 -47 -19 -68 0 -122 -18 -155 -50 -23
-23 -28 -37 -28 -77 0 -63 17 -94 63 -117 49 -23 115 -15 157 20 l30 26 11
-26 c11 -23 18 -26 61 -26 l48 0 0 153 c0 168 -5 188 -59 224 -29 20 -46 23
-115 22 -45 0 -95 -5 -113 -10z m150 -244 c-3 -35 -28 -57 -63 -53 -36 4 -36
57 0 75 41 21 65 13 63 -22z"/>
<path d="M18640 12745 l0 -285 65 0 65 0 0 105 0 106 31 -23 c40 -30 107 -31
146 -2 46 34 66 79 71 158 5 91 -11 151 -53 193 -29 29 -40 33 -83 33 -40 0
-57 -6 -81 -26 l-31 -26 -11 26 c-11 23 -18 26 -66 26 l-53 0 0 -285z m224
163 c24 -34 21 -133 -4 -158 -25 -25 -32 -25 -60 -2 -18 15 -22 28 -23 80 0
46 4 67 18 82 24 26 50 25 69 -2z"/>
<path d="M19933 13010 c-40 -24 -53 -48 -53 -99 0 -54 33 -91 114 -125 131
-56 57 -86 -96 -40 -16 5 -18 -2 -18 -50 l0 -55 38 -8 c20 -4 66 -8 102 -8
118 1 177 52 167 142 -6 57 -32 84 -113 118 -35 15 -64 33 -64 41 0 19 60 18
104 0 33 -14 33 -14 50 20 9 19 16 41 16 48 0 37 -192 50 -247 16z"/>
<path d="M20333 13019 c-43 -12 -45 -19 -26 -68 12 -31 20 -40 32 -36 9 4 37
11 63 17 52 12 78 1 78 -33 0 -16 -8 -19 -47 -19 -68 0 -122 -18 -155 -50 -23
-23 -28 -37 -28 -77 0 -63 17 -94 63 -117 49 -23 115 -15 157 20 l30 26 11
-26 c11 -23 18 -26 61 -26 l48 0 0 153 c0 168 -5 188 -59 224 -29 20 -46 23
-115 22 -45 0 -95 -5 -113 -10z m150 -244 c-3 -35 -28 -57 -63 -53 -36 4 -36
57 0 75 41 21 65 13 63 -22z"/>
<path d="M14455 12728 c-4 -14 -35 -180 -35 -191 0 -4 22 -7 50 -7 l49 0 25
78 c40 129 41 126 -27 130 -40 2 -59 -1 -62 -10z"/>
<path d="M2693 10860 c-19 -8 -23 -17 -23 -49 0 -46 18 -61 74 -61 42 0 66 22
66 60 0 49 -58 74 -117 50z"/>
<path d="M3842 10854 c-26 -18 -30 -65 -6 -88 18 -18 76 -21 105 -6 28 15 26
74 -3 94 -12 9 -34 16 -48 16 -14 0 -36 -7 -48 -16z"/>
<path d="M11982 10854 c-26 -18 -30 -65 -6 -88 18 -18 76 -21 105 -6 28 15 26
74 -3 94 -12 9 -34 16 -48 16 -14 0 -36 -7 -48 -16z"/>
<path d="M15663 10860 c-19 -8 -23 -17 -23 -49 0 -46 18 -61 74 -61 42 0 66
22 66 60 0 49 -58 74 -117 50z"/>
<path d="M17363 10855 c-28 -20 -30 -65 -5 -88 24 -22 95 -22 112 -1 16 18 17
71 3 85 -19 19 -86 22 -110 4z"/>
<path d="M7152 10761 l3 -99 -28 24 c-34 28 -102 33 -146 9 -74 -38 -102 -208
-51 -310 43 -86 129 -108 198 -50 l29 24 13 -24 c12 -22 20 -25 67 -25 l53 0
0 275 0 275 -71 0 -70 0 3 -99z m-8 -183 c24 -34 21 -123 -4 -148 -48 -48 -95
-8 -95 80 0 33 6 64 14 73 20 25 67 21 85 -5z"/>
<path d="M12424 10849 c-3 -6 -3 -52 1 -102 l7 -92 -27 27 c-67 67 -186 23
-214 -79 -14 -49 -14 -137 0 -186 6 -22 25 -55 43 -75 30 -32 39 -36 85 -36
42 0 56 5 79 28 l29 27 17 -26 c14 -21 24 -25 66 -25 l50 0 0 275 0 275 -64 0
c-36 0 -68 -5 -72 -11z m-2 -271 c6 -13 12 -46 12 -75 0 -81 -48 -119 -94 -73
-25 25 -28 114 -4 148 21 30 69 30 86 0z"/>
<path d="M1149 10799 c-150 -82 -269 -216 -347 -390 l-27 -59 -97 75 c-53 41
-103 75 -112 75 -35 0 -71 -93 -48 -125 4 -6 50 -31 104 -58 53 -26 119 -65
147 -87 34 -27 53 -36 55 -28 73 245 208 452 364 556 28 19 52 40 52 47 0 25
-39 22 -91 -6z"/>
<path d="M1937 10823 c-5 -9 -167 -502 -167 -509 0 -2 33 -4 74 -4 l75 0 13
48 14 47 84 0 84 0 11 -45 11 -45 78 -3 c61 -2 77 0 74 10 -3 7 -42 124 -87
261 l-83 247 -88 0 c-49 0 -91 -3 -93 -7z m122 -203 c11 -47 21 -88 21 -92 0
-5 -22 -8 -50 -8 -27 0 -50 3 -50 8 -1 23 45 191 50 185 4 -5 17 -46 29 -93z"/>
<path d="M2386 10745 c-11 -27 -30 -52 -47 -62 -37 -22 -41 -70 -6 -75 21 -3
22 -8 27 -119 6 -133 18 -162 77 -178 47 -13 51 -13 113 0 l50 11 0 49 0 49
-47 -3 -48 -2 -3 98 -3 97 46 0 45 0 0 50 0 50 -44 0 c-44 0 -45 0 -48 38 -3
36 -4 37 -48 40 -45 3 -45 3 -64 -43z"/>
<path d="M18991 10748 c-10 -24 -33 -53 -50 -66 -40 -29 -44 -72 -6 -72 l25 0
0 -105 c0 -112 14 -166 47 -183 35 -19 93 -24 143 -12 l50 12 0 50 0 50 -30
-7 c-63 -14 -70 -4 -70 101 l0 94 51 0 50 0 -3 48 -3 47 -47 3 -48 3 0 40 0
39 -45 0 c-44 0 -46 -1 -64 -42z"/>
<path d="M3497 10708 c-72 -10 -106 -41 -121 -109 -8 -37 11 -95 39 -117 l25
-20 -25 -16 c-29 -19 -34 -66 -10 -86 19 -15 19 -30 2 -30 -26 0 -59 -47 -59
-85 0 -76 66 -110 201 -103 141 7 204 54 205 151 1 43 -3 52 -32 78 -29 26
-39 29 -105 29 -84 0 -117 7 -117 25 0 8 23 14 66 18 75 6 109 25 137 78 12
23 16 46 13 70 -5 33 -3 38 19 43 21 5 25 12 25 41 l0 34 -109 3 c-61 2 -130
0 -154 -4z m67 -74 c21 -8 31 -66 16 -94 -8 -15 -19 -20 -38 -18 -36 4 -52 56
-28 93 17 26 24 29 50 19z m69 -353 c20 -20 -24 -51 -79 -57 -39 -5 -54 -2
-72 12 -25 21 -22 49 6 58 28 8 133 -1 145 -13z"/>
<path d="M4266 10709 c-16 -5 -42 -20 -57 -35 l-29 -28 -11 32 c-10 30 -14 32
-60 32 l-49 0 0 -200 0 -200 65 0 65 0 0 105 c0 58 5 115 12 130 12 27 73 50
102 39 19 -7 23 3 29 73 3 46 2 52 -17 55 -12 3 -34 1 -50 -3z"/>
<path d="M4785 10708 c-21 -5 -49 -18 -60 -28 l-22 -20 -11 25 c-10 22 -18 25
-62 25 l-50 0 0 -200 0 -200 70 0 70 0 0 124 c0 110 2 126 21 150 23 30 41 33
63 10 13 -12 16 -41 16 -150 l0 -134 70 0 70 0 1 113 c1 135 7 157 43 177 26
14 28 14 47 -9 17 -20 19 -39 19 -152 l0 -129 71 0 71 0 -4 158 c-4 174 -14
210 -65 230 -60 24 -124 18 -163 -14 l-31 -27 -24 23 c-29 28 -87 39 -140 28z"/>
<path d="M5450 10712 c-91 -12 -142 -59 -160 -148 -35 -170 76 -283 253 -259
90 13 97 18 97 74 l0 49 -47 -15 c-64 -19 -132 -12 -155 17 -10 12 -18 26 -18
31 0 5 57 9 126 9 l127 0 -5 65 c-6 69 -28 117 -68 147 -27 19 -107 36 -150
30z m74 -108 c31 -31 20 -44 -39 -44 -48 0 -55 3 -55 20 0 37 65 54 94 24z"/>
<path d="M5956 10709 c-16 -5 -42 -20 -57 -35 l-29 -28 -11 32 c-10 30 -14 32
-60 32 l-49 0 0 -200 0 -200 65 0 65 0 0 105 c0 58 5 115 12 130 12 27 73 50
102 39 19 -7 23 3 29 73 3 46 2 52 -17 55 -12 3 -34 1 -50 -3z"/>
<path d="M6228 10709 c-67 -10 -113 -41 -138 -95 -30 -60 -26 -187 6 -231 53
-71 142 -97 238 -69 l56 17 0 55 c0 50 -2 55 -17 49 -43 -18 -94 -27 -117 -21
-34 8 -48 38 -48 100 1 43 5 55 28 74 27 24 36 24 106 7 22 -6 27 -2 42 34 9
23 16 45 16 50 0 22 -105 40 -172 30z"/>
<path d="M6605 10709 c-33 -4 -72 -12 -87 -18 l-27 -10 19 -43 c21 -46 21 -46
88 -27 51 14 92 1 92 -29 0 -17 -10 -20 -72 -24 -40 -3 -88 -12 -105 -22 -96
-49 -73 -211 33 -230 41 -8 103 7 136 34 l25 19 11 -24 c10 -22 18 -25 63 -25
l51 0 -4 158 c-2 126 -6 162 -20 180 -38 55 -97 73 -203 61z m85 -246 c0 -51
-60 -84 -90 -48 -26 31 12 74 68 75 17 0 22 -6 22 -27z"/>
<path d="M7525 10710 c-61 -9 -107 -40 -133 -90 -19 -38 -23 -57 -20 -121 2
-62 8 -83 30 -116 35 -53 87 -77 163 -77 119 0 186 63 193 181 5 80 -16 140
-64 183 -19 16 -38 30 -42 30 -4 1 -25 4 -47 8 -22 4 -58 5 -80 2z m79 -122
c18 -25 21 -113 6 -152 -8 -21 -16 -26 -44 -26 -45 0 -58 23 -58 100 0 32 5
67 11 79 16 29 65 28 85 -1z"/>
<path d="M8546 10708 c-97 -14 -146 -82 -146 -203 0 -89 26 -139 90 -175 38
-21 57 -25 125 -24 44 1 92 6 108 12 24 10 27 16 27 61 l0 49 -47 -14 c-83
-25 -141 -13 -162 32 l-11 24 127 0 126 0 -5 71 c-10 131 -90 188 -232 167z
m92 -100 c7 -7 12 -20 12 -30 0 -15 -9 -18 -55 -18 -41 0 -55 4 -55 14 0 38
70 62 98 34z"/>
<path d="M9220 10714 c-73 -11 -94 -18 -121 -41 -96 -81 -91 -273 9 -339 47
-32 119 -39 186 -20 l56 17 0 54 c0 30 -1 55 -2 55 -2 0 -21 -7 -43 -15 -57
-20 -83 -18 -110 10 -36 35 -36 115 1 152 26 26 33 26 107 8 23 -6 28 -2 41
30 20 48 20 61 -1 70 -24 9 -104 21 -123 19z"/>
<path d="M9575 10710 c-61 -9 -107 -40 -133 -90 -19 -38 -23 -57 -20 -121 2
-62 8 -83 30 -116 35 -53 87 -77 163 -77 119 0 186 63 193 181 5 80 -16 140
-64 183 -19 16 -38 30 -42 30 -4 1 -25 4 -47 8 -22 4 -58 5 -80 2z m79 -122
c18 -25 21 -113 6 -152 -8 -21 -16 -26 -44 -26 -45 0 -58 23 -58 100 0 32 5
67 11 79 16 29 65 28 85 -1z"/>
<path d="M10486 10708 c-63 -9 -99 -35 -110 -80 -18 -73 16 -122 114 -163 101
-42 64 -80 -50 -51 -34 9 -64 16 -66 16 -2 0 -4 -25 -4 -55 l0 -54 38 -8 c20
-4 69 -8 108 -7 112 0 164 41 164 130 0 56 -28 89 -108 127 -36 18 -63 37 -61
42 5 11 59 12 105 1 29 -7 31 -5 46 33 15 39 15 42 -1 51 -31 16 -124 26 -175
18z"/>
<path d="M11445 10708 c-21 -5 -49 -18 -60 -28 l-22 -20 -11 25 c-10 22 -18
25 -62 25 l-50 0 0 -200 0 -200 70 0 70 0 0 124 c0 110 2 126 21 150 23 30 41
33 63 10 13 -12 16 -41 16 -150 l0 -134 70 0 70 0 1 113 c1 135 7 157 43 177
26 14 28 14 47 -9 17 -20 19 -39 19 -152 l0 -129 71 0 71 0 -4 158 c-4 174
-14 210 -65 230 -60 24 -124 18 -163 -14 l-31 -27 -24 23 c-29 28 -87 39 -140
28z"/>
<path d="M13326 10709 c-16 -5 -42 -20 -57 -35 l-29 -28 -11 32 c-10 30 -14
32 -60 32 l-49 0 0 -200 0 -200 65 0 65 0 0 105 c0 58 5 115 12 130 12 27 73
50 102 39 19 -7 23 3 29 73 3 46 2 52 -17 55 -12 3 -34 1 -50 -3z"/>
<path d="M13595 10710 c-99 -15 -145 -71 -153 -185 -9 -145 62 -219 208 -220
41 0 92 6 113 13 36 13 37 15 37 63 0 27 -1 49 -2 49 -2 0 -21 -7 -43 -15 -59
-21 -117 -19 -149 6 -52 41 -37 49 94 49 l120 0 0 58 c-1 75 -28 135 -72 158
-42 22 -101 31 -153 24z m89 -112 c9 -12 16 -26 16 -30 0 -5 -27 -8 -60 -8
-64 0 -73 9 -43 42 23 25 68 23 87 -4z"/>
<path d="M14675 10708 c-21 -5 -49 -18 -60 -28 l-22 -20 -11 25 c-10 22 -18
25 -62 25 l-50 0 0 -200 0 -200 70 0 70 0 0 124 c0 110 2 126 21 150 23 30 41
33 63 10 13 -12 16 -41 16 -150 l0 -134 70 0 70 0 1 113 c1 135 7 157 43 177
26 14 28 14 47 -9 17 -20 19 -39 19 -152 l0 -129 71 0 71 0 -4 158 c-4 174
-14 210 -65 230 -60 24 -124 18 -163 -14 l-31 -27 -24 23 c-29 28 -87 39 -140
28z"/>
<path d="M15325 10709 c-33 -4 -72 -11 -87 -17 -25 -10 -27 -14 -18 -37 24
-64 25 -65 76 -49 60 18 79 18 98 -2 31 -30 20 -44 -36 -44 -116 0 -177 -37
-185 -113 -9 -79 22 -125 94 -141 40 -9 105 8 128 34 23 26 29 25 43 -5 10
-21 18 -25 57 -25 l45 0 0 156 c0 165 -7 195 -52 223 -30 19 -98 27 -163 20z
m85 -244 c0 -46 -52 -79 -88 -56 -21 13 -10 54 18 68 42 21 70 17 70 -12z"/>
<path d="M16576 10708 c-97 -14 -146 -82 -146 -203 0 -89 26 -139 90 -175 38
-21 57 -25 125 -24 44 1 92 6 108 12 24 10 27 16 27 61 l0 49 -47 -14 c-83
-25 -141 -13 -162 32 l-11 24 127 0 126 0 -5 71 c-10 131 -90 188 -232 167z
m92 -100 c7 -7 12 -20 12 -30 0 -15 -9 -18 -55 -18 -41 0 -55 4 -55 14 0 38
70 62 98 34z"/>
<path d="M17694 10709 c-49 -6 -77 -22 -103 -55 -37 -47 -21 -160 25 -178 14
-5 13 -10 -10 -31 -31 -29 -33 -58 -6 -85 20 -20 20 -20 -10 -35 -90 -47 -55
-164 54 -180 75 -12 176 -1 224 24 71 36 100 110 70 176 -18 39 -57 55 -138
55 -116 0 -153 34 -47 42 35 3 77 13 94 21 38 20 66 77 61 124 -4 29 0 37 19
46 17 8 23 18 23 43 l0 33 -109 3 c-59 2 -126 1 -147 -3z m76 -88 c14 -26 13
-74 -2 -89 -17 -17 -55 -15 -62 4 -10 26 -7 79 6 92 18 18 46 14 58 -7z m34
-331 c55 -21 22 -57 -62 -67 -39 -4 -52 -1 -72 16 l-25 21 24 20 c26 22 91 27
135 10z"/>
<path d="M18146 10708 c-97 -14 -146 -82 -146 -203 0 -89 26 -139 90 -175 38
-21 57 -25 125 -24 44 1 92 6 108 12 24 10 27 16 27 61 l0 49 -47 -14 c-83
-25 -141 -13 -162 32 l-11 24 127 0 126 0 -5 71 c-10 131 -90 188 -232 167z
m92 -100 c7 -7 12 -20 12 -30 0 -15 -9 -18 -55 -18 -41 0 -55 4 -55 14 0 38
70 62 98 34z"/>
<path d="M18665 10708 c-21 -5 -49 -18 -62 -30 l-22 -21 -10 27 c-9 23 -16 26
-61 26 l-50 0 0 -200 0 -200 63 0 64 0 6 124 c6 137 14 162 54 172 20 5 31 2
45 -16 15 -19 18 -41 18 -151 l0 -129 70 0 70 0 0 133 c0 72 -5 150 -10 171
-17 75 -86 112 -175 94z"/>
<path d="M19406 10708 c-97 -14 -146 -82 -146 -203 0 -89 26 -139 90 -175 38
-21 57 -25 125 -24 44 1 92 6 108 12 24 10 27 16 27 61 l0 49 -47 -14 c-83
-25 -141 -13 -162 32 l-11 24 127 0 126 0 -5 71 c-10 131 -90 188 -232 167z
m92 -100 c7 -7 12 -20 12 -30 0 -15 -9 -18 -55 -18 -41 0 -55 4 -55 14 0 38
70 62 98 34z"/>
<path d="M19829 10709 c-101 -15 -141 -78 -104 -165 12 -29 27 -41 90 -70 73
-34 93 -58 59 -71 -14 -5 -82 6 -141 23 -22 6 -23 3 -23 -45 0 -47 3 -53 28
-63 15 -6 63 -12 107 -12 126 0 175 36 175 129 -1 65 -15 83 -103 125 -39 19
-72 40 -72 45 0 16 44 18 92 5 24 -7 46 -11 48 -8 2 2 11 21 20 41 14 35 14
37 -6 48 -32 16 -117 26 -170 18z"/>
<path d="M2670 10510 l0 -200 70 0 70 0 -2 198 -3 197 -67 3 -68 3 0 -201z"/>
<path d="M2900 10510 l0 -200 69 0 69 0 4 131 c3 123 4 132 27 150 28 23 45
24 65 3 13 -12 16 -41 16 -150 l0 -134 70 0 70 0 0 151 c0 168 -9 202 -59 232
-52 30 -191 13 -191 -23 0 -21 -20 -9 -26 15 -6 23 -11 25 -60 25 l-54 0 0
-200z"/>
<path d="M3820 10510 l0 -200 70 0 70 0 0 200 0 200 -70 0 -70 0 0 -200z"/>
<path d="M7893 10690 c-40 -24 -53 -48 -53 -99 0 -54 33 -91 114 -125 131 -56
57 -86 -96 -40 -16 5 -18 -2 -18 -49 0 -49 3 -55 23 -61 117 -29 233 -9 268
47 15 24 19 44 16 80 -5 61 -29 86 -113 122 -35 15 -64 33 -64 41 0 19 60 18
104 0 33 -14 33 -14 50 20 9 19 16 41 16 48 0 37 -192 50 -247 16z"/>
<path d="M9890 10510 l0 -200 69 0 69 0 4 131 c3 123 4 132 27 150 28 23 45
24 65 3 13 -12 16 -41 16 -150 l0 -134 70 0 70 0 0 151 c0 168 -9 202 -59 232
-52 30 -191 13 -191 -23 0 -21 -20 -9 -26 15 -6 23 -11 25 -60 25 l-54 0 0
-200z"/>
<path d="M10760 10551 c0 -148 1 -160 23 -192 42 -63 145 -74 206 -23 36 30
37 30 45 -1 6 -22 11 -25 56 -25 l50 0 0 200 0 200 -65 0 -65 0 -1 -107 c0
-129 -13 -174 -52 -187 -22 -8 -31 -6 -45 7 -14 15 -18 41 -20 152 l-4 135
-64 0 -64 0 0 -159z"/>
<path d="M11960 10510 l0 -200 70 0 70 0 0 200 0 200 -70 0 -70 0 0 -200z"/>
<path d="M12745 10696 c-135 -59 -139 -303 -6 -370 131 -66 279 7 296 148 12
96 -25 180 -95 216 -46 24 -148 27 -195 6z m136 -103 c19 -22 19 -144 0 -167
-21 -25 -72 -17 -89 14 -16 31 -11 132 7 154 17 21 65 20 82 -1z"/>
<path d="M13955 10692 c-46 -29 -58 -49 -57 -98 0 -58 26 -87 108 -124 70 -32
80 -42 58 -61 -12 -10 -28 -10 -72 -2 -31 6 -65 14 -74 18 -16 6 -18 0 -18
-48 0 -49 3 -55 23 -60 148 -36 266 2 283 89 8 44 -12 101 -44 122 -14 9 -48
27 -76 39 -29 12 -53 29 -54 38 -4 16 2 17 45 12 26 -3 58 -9 70 -12 18 -6 24
-1 37 30 21 50 21 50 -23 63 -61 19 -171 15 -206 -6z"/>
<path d="M15640 10510 l0 -200 70 0 70 0 -2 198 -3 197 -67 3 -68 3 0 -201z"/>
<path d="M15923 10690 c-40 -24 -53 -48 -53 -99 0 -54 33 -91 114 -125 131
-56 57 -86 -96 -40 -16 5 -18 -2 -18 -49 0 -49 3 -55 23 -61 117 -29 233 -9
268 47 15 24 19 44 16 80 -5 61 -29 86 -113 122 -35 15 -64 33 -64 41 0 19 60
18 104 0 33 -14 33 -14 50 20 9 19 16 41 16 48 0 37 -192 50 -247 16z"/>
<path d="M16863 10696 c3 -8 28 -50 56 -95 28 -44 51 -84 51 -88 0 -5 -22 -43
-50 -85 -82 -129 -83 -118 8 -118 l78 0 27 55 c15 30 30 55 35 55 4 0 21 -25
37 -55 l30 -55 78 0 c89 0 89 -13 4 119 l-55 84 55 85 c77 119 78 112 -11 112
l-76 0 -25 -49 c-13 -27 -28 -52 -33 -55 -5 -3 -20 20 -35 50 l-27 54 -76 0
c-61 0 -75 -3 -71 -14z"/>
<path d="M17340 10510 l0 -200 70 0 70 0 0 200 0 200 -70 0 -70 0 0 -200z"/>
</g>
</svg>
